<?xml version="1.0" encoding="UTF-8" standalone="no"?>
<!-- Created with Inkscape (http://www.inkscape.org/) -->

<svg
   xmlns:dc="http://purl.org/dc/elements/1.1/"
   xmlns:cc="http://creativecommons.org/ns#"
   xmlns:rdf="http://www.w3.org/1999/02/22-rdf-syntax-ns#"
   xmlns:svg="http://www.w3.org/2000/svg"
   xmlns="http://www.w3.org/2000/svg"
   xmlns:sodipodi="http://sodipodi.sourceforge.net/DTD/sodipodi-0.dtd"
   xmlns:inkscape="http://www.inkscape.org/namespaces/inkscape"
   width="500mm"
   height="400mm"
   viewBox="0 0 1771.6535 1417.3228"
   id="svg2"
   version="1.1"
   inkscape:version="0.91 r13725"
   sodipodi:docname="infty.svg">
  <defs
     id="defs4" />
  <sodipodi:namedview
     id="base"
     pagecolor="#ffffff"
     bordercolor="#666666"
     borderopacity="1.0"
     inkscape:pageopacity="0.0"
     inkscape:pageshadow="2"
     inkscape:zoom="0.24748737"
     inkscape:cx="1660.5066"
     inkscape:cy="204.03184"
     inkscape:document-units="px"
     inkscape:current-layer="layer1"
     showgrid="false"
     inkscape:window-width="1600"
     inkscape:window-height="854"
     inkscape:window-x="0"
     inkscape:window-y="0"
     inkscape:window-maximized="1" />
  <metadata
     id="metadata7">
    <rdf:RDF>
      <cc:Work
         rdf:about="">
        <dc:format>image/svg+xml</dc:format>
        <dc:type
           rdf:resource="http://purl.org/dc/dcmitype/StillImage" />
        <dc:title></dc:title>
      </cc:Work>
    </rdf:RDF>
  </metadata>
  <g
     inkscape:label="Layer 1"
     inkscape:groupmode="layer"
     id="layer1"
     transform="translate(0,364.96063)">
    <path
       style="fill:#000000"
       d="m 864.01558,972.51429 c -21.19566,-0.96096 -68.94701,-4.64192 -75.70154,-5.83537 -3.57663,-0.63198 -6.34916,-2.3066 -6.34916,-3.83489 0,-1.49215 -0.87912,-2.71295 -1.95359,-2.71295 -1.07448,0 -1.95359,1.35853 -1.95359,3.01889 0,3.35606 -0.63999,3.29589 -33.21099,-3.12828 -37.79373,-7.45431 -48.02389,-9.78944 -54.70047,-12.48617 -3.76065,-1.51872 -16.45057,-5.59039 -28.19985,-9.04785 -46.88493,-13.79722 -106.21696,-42.4669 -140.7855,-68.02902 -5.37237,-3.97261 -14.60308,-10.15298 -20.51268,-13.7345 -5.90961,-3.58131 -15.80941,-10.35109 -21.99974,-15.04399 -6.19015,-4.69272 -11.988,-8.5323 -12.88392,-8.5323 -0.89592,0 -3.30371,-1.88169 -5.35048,-4.18165 -2.04697,-2.29997 -9.87539,-9.43271 -17.39671,-15.85064 C 379.45465,758.87811 321.1461,682.80833 283.59677,605.13446 c -8.48404,-17.54987 -15.42553,-32.33502 -15.42553,-32.85604 0,-0.52101 -3.46684,-9.0711 -7.70417,-19.00001 -10.9524,-25.6637 -33.62457,-110.41406 -33.09319,-123.70452 0.1387,-3.48617 1.23837,-0.76737 2.82762,6.99561 1.42983,6.98408 5.66618,24.6537 9.41434,39.26595 11.7647,45.86594 16.07471,50.92827 11.47792,13.48093 -2.89581,-23.59075 -3.00482,-21.66412 4.64348,-82.0507 5.06565,-39.99678 29.31027,-104.98816 47.84102,-128.24542 3.29942,-4.14083 7.34862,-10.16628 8.99823,-13.3897 5.6531,-11.04579 45.34238,-52.75665 64.01888,-67.27962 20.45114,-15.90298 25.95889,-19.84884 33.211,-23.79275 4.29789,-2.33727 11.33081,-6.50857 15.62871,-9.26958 14.42939,-9.26978 49.11261,-22.04819 70.32916,-25.91161 38.31474,-6.97665 77.34646,-9.14806 102.56337,-5.70604 47.5894,6.49627 70.06622,11.47108 94.41475,20.89753 48.50583,18.77868 78.19862,38.41888 117.62808,77.80496 16.16047,16.14251 30.6389,31.98728 32.17462,35.2107 1.53552,3.22342 5.10472,9.37722 7.93136,13.67511 2.82684,4.2979 10.62733,18.30161 17.33459,31.11909 29.55581,56.48155 44.36989,78.98669 73.09579,111.04428 10.88503,12.14762 40.26548,37.15842 52.68269,44.84754 27.43691,16.98978 45.47241,25.54552 68.71531,32.59718 7.5212,2.28199 16.3585,5.00628 19.6382,6.05398 6.3063,2.01435 18.9047,4.87478 35.0622,7.96087 20.8743,3.98688 63.7487,5.33056 85.9578,2.694 35.7816,-4.24807 87.8261,-20.00572 106.4706,-32.23655 56.8301,-37.2811 68.7972,-46.5706 94.2641,-73.17359 13.3967,-13.99452 46.319,-59.25076 46.3632,-63.73287 0.019,-1.73538 1.7482,-5.33858 3.8474,-8.00718 5.5667,-7.07706 24.4119,-66.81759 27.5338,-87.28454 0.919,-6.02467 2.8527,-18.866 4.2969,-28.53626 4.1258,-27.62237 1.6659,-73.47425 -5.339,-99.52086 -9.1541,-34.037946 -42.3264,-108.233454 -62.5009,-139.793668 -4.4645,-6.984077 -10.1941,-16.214781 -12.7322,-20.512674 -2.5382,-4.297894 -7.7541,-11.418722 -11.591,-15.824258 -3.8367,-4.405731 -10.9081,-13.636439 -15.7144,-20.512685 -9.1735,-13.124498 -66.8224,-72.060595 -91.871,-93.922115 -19.6578,-17.15661 -51.4198,-40.84652 -75.2398,-56.11803 -10.7302,-6.87932 -21.8755,-14.12039 -24.7676,-16.09129 -5.3396,-3.63873 -59.2081,-30.98528 -61.0364,-30.98528 -0.5485,0 -5.6367,-2.16725 -11.3069,-4.81609 -29.4801,-13.77131 -78.6097,-28.54312 -127.52495,-38.3431 -57.09854,-11.43937 -166.74403,-12.87256 -220.75547,-2.8855 -46.70521,8.63609 -65.99201,14.02539 -119.16887,33.29955 -10.74473,3.89446 -23.49189,8.44267 -28.32703,10.10711 -19.2442,6.62462 -52.8045,22.74112 -68.37557,32.83569 -6.98408,4.52769 -16.21478,10.31178 -20.51267,12.85351 -9.85292,5.8269 -45.52642,31.58229 -60.74058,43.85316 -24.2489,19.55777 -72.04402,64.89952 -88.36136,83.825529 -22.6624,26.285862 -24.46966,28.811845 -56.05567,78.352503 -34.60313,54.273209 -50.97223,88.816557 -72.67074,153.356648 -12.03488,35.79639 -17.46781,58.44394 -21.03252,87.67626 -1.65371,13.56024 -4.0328,31.68797 -5.28661,40.28377 -3.27831,22.47212 -3.47894,102.8857 -0.32176,128.93679 1.43258,11.81921 2.51096,24.12681 2.39667,27.35024 -0.18168,5.12445 -1.82563,-5.48001 -6.66193,-42.97893 -2.10675,-16.33611 -1.70509,-84.83691 0.60718,-103.54017 1.19559,-9.67026 3.17438,-29.01078 4.39733,-42.97894 3.43166,-39.19834 11.72993,-68.45294 44.05517,-155.310248 5.69001,-15.289167 31.22028,-62.810775 47.02422,-87.530305 6.28704,-9.833776 13.71887,-21.634815 16.51524,-26.224184 21.62154,-35.486733 22.4141,-36.473302 70.85645,-88.220533 18.82458,-20.1089 54.60805,-51.48352 80.34638,-70.44711 4.2979,-3.16664 8.25391,-6.32752 8.79115,-7.02419 0.53723,-0.69669 6.25148,-4.78189 12.69832,-9.07824 34.00337,-22.66086 55.91305,-36.07919 66.42199,-40.67964 6.44684,-2.82219 15.4521,-6.88714 20.01178,-9.0332 29.16491,-13.72707 126.83123,-45.5642 151.90397,-49.51742 4.29789,-0.67766 13.52859,-2.42541 20.51267,-3.88393 30.86317,-6.44525 51.92148,-7.86862 109.40093,-7.39458 64.83489,0.5347 87.57541,3.25048 153.35668,18.31438 14.8613,3.40326 80.0275,25.91042 97.6794,33.73659 20.0222,8.87719 52.5575,25.66085 61.4268,31.68771 3.7833,2.57086 7.4011,4.67429 8.0398,4.67429 1.4151,0 41.2415,26.79988 61.6818,41.50667 33.8063,24.32371 91.2897,78.13527 112.1781,105.012396 4.5929,5.909606 14.2152,17.777554 21.383,26.37334 25.0581,30.050493 56.5714,86.541224 76.2864,136.751172 3.3751,8.595787 8.3833,21.342946 11.1292,28.327022 2.746,6.98407 6.9387,20.17079 9.3173,29.30382 2.3785,9.13302 7.0566,24.71367 10.3956,34.62364 17.901,53.12548 23.9842,102.04176 21.6299,173.92871 -0.8533,26.05989 -1.9909,48.09206 -2.5277,48.96063 -0.5369,0.86856 -2.3508,10.31612 -4.0309,20.99423 -8.2777,52.60896 -17.0739,91.02392 -25.6935,112.21038 -1.5298,3.76066 -5.3068,14.31004 -8.3929,23.44306 -8.9776,26.56919 -15.5308,43.04966 -22.5271,56.65406 -3.5917,6.98407 -7.1932,14.8961 -8.0032,17.58228 -1.4589,4.83845 -9.1283,17.12496 -35.2713,56.50598 -7.4356,11.2005 -14.3984,21.78367 -15.4729,23.51807 -20.5845,33.22741 -77.8304,96.44297 -108.4238,119.73092 -5.9097,4.49852 -15.5799,12.24997 -21.4895,17.22575 -5.9097,4.9756 -16.459,12.86731 -23.4431,17.53678 -6.9841,4.66966 -15.3357,10.65467 -18.5591,13.30041 -3.2234,2.64556 -10.2563,6.86902 -15.6287,9.38544 -5.3724,2.51641 -14.1635,7.15677 -19.5359,10.312 -5.3722,3.15505 -13.7239,7.58032 -18.559,9.83398 -4.8352,2.25366 -13.1867,6.20947 -18.5591,8.79076 -36.7321,17.64871 -117.8643,46.16172 -149.4495,52.52221 -53.82992,10.84026 -108.37235,16.97413 -138.70472,15.59881 z m -21.95521,-9.81834 c -1.86783,-0.48898 -5.38428,-0.50656 -7.81435,-0.039 -2.43007,0.4673 -0.90178,0.8674 3.39612,0.88908 4.29789,0.0215 6.28606,-0.36063 4.41823,-0.84962 z m 34.39253,-32.83083 c 2.70689,-5.71718 6.79218,-16.85028 9.07856,-24.74063 2.28626,-7.89015 5.31016,-18.3018 6.71967,-23.13693 1.40974,-4.83512 3.09491,-11.09892 3.74532,-13.91951 1.07111,-4.64719 2.23873,-5.22115 12.43924,-6.11472 7.96166,-0.69764 12.15989,-0.19713 14.34126,1.70957 3.99906,3.49557 5.70705,3.41097 5.70705,-0.28267 0,-1.63848 2.1978,-3.81438 4.88397,-4.83572 2.68617,-1.02134 4.88398,-3.19725 4.88398,-4.83552 0,-2.99642 -0.92227,-3.35509 -9.62805,-3.74386 -3.65653,-0.1641 -5.21008,-1.77933 -6.7766,-7.04933 l -2.03274,-6.83755 -0.65466,7.11516 c -0.60097,6.53221 -1.31635,7.28297 -8.73407,9.16584 -4.44381,1.12781 -8.68722,1.6752 -9.43,1.21611 -1.28762,-0.79589 1.92248,-18.8699 6.15415,-34.65 2.12824,-7.93646 5.70525,-8.13357 5.70525,-0.31415 0,2.62289 0.79534,4.76871 1.7676,4.76871 2.13238,0 0.49406,-13.96248 -2.75081,-23.44305 -1.28717,-3.76066 -3.04112,-6.83756 -3.89763,-6.83756 -2.77753,0 -11.83133,31.52427 -16.10695,56.08341 -0.67646,3.88607 -2.63417,5.85549 -7.37612,7.42031 -8.79525,2.90284 -10.57379,7.80224 -2.83233,7.80224 3.18985,0 5.79159,0.65934 5.78164,1.46519 -0.0727,5.96801 -15.01115,57.22977 -22.63014,77.65513 -3.1357,8.40629 6.60665,-3.02455 11.64241,-13.66047 z m -34.10652,-0.2059 c -3.99509,-4.25258 -9.58822,-6.34663 -9.58822,-3.58973 0,0.60659 2.63735,3.32208 5.86077,6.03444 3.22342,2.71217 5.98052,6.39176 6.12684,8.17655 0.14652,1.7848 0.65817,1.18114 1.13757,-1.34172 0.56381,-2.96633 -0.68551,-6.24445 -3.53696,-9.27954 z m 202.03322,-40.34571 c 12.7374,-23.82439 17.3733,-38.16821 15.7059,-48.59549 -1.4882,-9.30709 -4.4927,-11.91903 -12.7935,-11.12217 -4.4839,0.43038 -7.0702,1.9741 -8.4053,5.01721 -2.6653,6.07507 -6.8625,5.53666 -6.8625,-0.8801 0,-8.76184 -6.4747,-27.93533 -9.4334,-27.93533 -1.7629,0 -2.2542,1.17821 -1.4092,3.37991 2.3183,6.04127 5.5059,34.42358 5.1811,46.13065 -0.4049,14.58686 2.9258,14.02462 7.6656,-1.29444 3.9775,-12.85559 6.8079,-16.95871 11.6983,-16.95871 7.791,0 6.7728,14.83886 -2.4132,35.16459 -4.4741,9.89999 -13.0672,33.71385 -13.2176,36.62977 -0.02,0.26862 0.7855,0.4884 1.7765,0.4884 0.991,0 6.6192,-9.01092 12.5073,-20.02429 z m -232.9847,-3.65457 c 1.4224,-2.65805 1.47965,-3.68701 0.1602,-2.87099 -1.34407,0.83047 -2.25894,-3.26992 -2.63696,-11.81843 -0.31843,-7.19975 -1.45816,-13.37934 -2.53263,-13.73236 -1.07447,-0.35301 -4.49365,3.97243 -7.59828,9.61224 -3.10464,5.63982 -4.46728,9.1553 -3.02806,7.81221 4.73471,-4.41862 7.23354,-2.5676 8.57058,6.34916 1.44097,9.60794 3.63797,11.0534 7.06593,4.64817 z m -25.45369,-6.11336 c 5.62867,-9.11896 6.50017,-14.11898 3.52525,-20.22433 -4.59035,-9.42078 -7.50041,-8.08238 -7.5137,3.4561 0,5.73045 -1.3253,12.93705 -2.93037,16.01472 -3.60535,6.91298 -3.60418,7.10267 0.041,7.10267 1.62754,0 4.7226,-2.85712 6.878,-6.34916 z m -31.32656,-1.37943 c 0,-0.77674 -2.19778,-2.41346 -4.88398,-3.63739 -7.28043,-3.31719 -6.15184,-9.62903 1.49998,-8.38968 0.82518,0.13284 4.49304,-1.00746 8.15094,-2.53576 7.68952,-3.21287 13.45612,-10.88344 11.67387,-15.52828 -2.08858,-5.4429 -5.62556,-3.57546 -9.65385,5.0971 -2.98293,6.42183 -5.07366,8.44282 -9.22895,8.92086 -6.38159,0.73436 -6.74945,-1.271 -1.46519,-7.9888 2.14895,-2.7319 3.90718,-5.48783 3.90718,-6.12411 0,-4.70346 -15.03306,6.78969 -17.55416,13.42056 -2.5174,6.62129 -0.045,14.59311 5.41514,17.45336 4.84784,2.54006 12.13902,2.12707 12.13902,-0.68786 z m 210.5161,-3.50454 c 2.60196,-5.88967 3.0958,-12.11381 2.51876,-31.74581 -0.39499,-13.43091 -0.78393,-27.05719 -0.86445,-30.28061 -0.0805,-3.22342 0.52281,-9.67808 1.34073,-14.34364 1.91533,-10.92406 -2.31153,-10.35694 -6.09677,0.81797 -2.89228,8.53933 -4.41686,82.87961 -1.6996,82.87863 0.86076,-4e-4 3.02121,-3.29727 4.80133,-7.32654 z m -142.23898,-0.83282 c 4.10116,-4.40221 6.96981,-11.01765 5.44034,-12.54711 -2.09444,-2.09445 -6.90495,1.8686 -9.90507,8.15974 -1.78813,3.74991 -3.25116,7.2277 -3.25116,7.7284 0,2.29977 4.12461,0.5136 7.71589,-3.34103 z m 182.59913,3.06577 c 5.3734,-2.06201 3.5624,-6.62852 -2.629,-6.62852 -5.81114,0 -13.81664,-7.45704 -13.81664,-12.86985 0,-5.00353 4.3965,-12.12846 9.00672,-14.59584 5.58042,-2.98665 6.07242,-5.74531 1.02448,-5.74531 -5.65605,0 -13.42324,7.17143 -15.90219,14.68239 -5.08672,15.41302 8.32131,30.52774 22.31663,25.15713 z M 723.90678,862.88342 c 6.14463,-6.20928 11.17198,-12.01651 11.17198,-12.90462 0,-0.88829 2.1892,-4.21681 4.86503,-7.39687 6.29915,-7.48595 19.0168,-29.1823 17.81203,-30.38708 -1.21728,-1.21728 -8.00718,5.17056 -13.70363,12.89153 -2.49161,3.37717 -9.15745,11.03289 -14.81289,17.01282 -10.75177,11.36833 -15.64355,12.04837 -11.67602,1.62304 1.19111,-3.12964 2.95774,-12.28376 3.92614,-20.34232 0.96838,-8.05855 2.34684,-19.26725 3.06302,-24.90824 1.02798,-8.0947 0.73045,-10.23857 -1.41146,-10.17175 -2.49083,0.0782 -5.834,4.54483 -23.8287,31.84056 -3.42953,5.2024 -10.77462,14.21332 -16.32242,20.02427 -8.78529,9.20219 -11.05379,10.56442 -17.58229,10.55816 -4.12246,0 -10.42298,-1.79202 -14.00078,-3.9734 -5.86057,-3.57311 -6.44059,-3.63113 -5.85431,-0.58685 0.35789,1.85844 3.62409,5.11566 7.25815,7.23804 5.88402,3.43656 7.57817,3.5993 15.47437,1.48747 12.02766,-3.21698 24.97018,-13.20137 35.53636,-27.41451 4.83512,-6.50408 9.48702,-11.84422 10.3378,-11.86688 2.0626,-0.0547 -0.3454,27.26389 -3.69854,41.96092 -1.47085,6.44684 -2.68735,12.82042 -2.70317,14.16352 -0.0606,5.04201 5.32255,2.09307 16.14933,-8.84781 z m 363.40272,-9.48212 c 0.6798,-0.68005 -0.831,-2.8624 -3.3578,-4.84979 -5.2055,-4.09472 -7.634,-13.67433 -5.7961,-22.86362 1.0002,-5.00099 2.1997,-6.21514 6.14,-6.21514 4.5705,0 4.8284,0.51164 3.8676,7.67448 -0.8126,6.05963 -0.4522,7.45312 1.7133,6.62206 3.2205,-1.23584 5.2563,-8.08393 4.3359,-14.58626 -0.5018,-3.54518 -2.0479,-4.73022 -6.7716,-5.18951 -5.6312,-0.5474 -6.5302,0.22603 -11.2331,9.66323 -5.8502,11.73989 -6.569,22.22538 -1.8786,27.40805 3.1544,3.48579 10.5075,4.80935 12.9804,2.3365 z m -520.2393,-9.81542 c 22.43383,-4.57159 40.83253,-15.96531 51.47041,-31.87376 6.35189,-9.49893 3.17144,-19.58961 -6.17432,-19.58961 -5.24051,0 -19.89944,7.55765 -19.89944,10.25928 0,2.10928 8.5321,-0.33329 9.44228,-2.70318 0.99613,-2.5932 7.70201,-2.01571 8.67119,0.74666 1.38548,3.94898 -8.35335,15.95338 -19.9985,24.65096 -11.00749,8.22127 -42.36491,19.79316 -53.63575,19.79316 -2.92608,0 -4.74742,0.84727 -4.09394,1.90455 1.35676,2.19525 13.22892,1.08913 34.21807,-3.18806 z m 546.8359,-7.01923 c 1.1481,-3.49205 1.9783,-11.06006 1.8449,-16.81786 -0.2727,-11.7604 1.7911,-14.28483 11.0222,-13.48327 5.0617,0.43956 6.2323,1.68379 8.5868,9.12697 2.4876,7.86475 2.9536,8.30664 5.3301,5.05647 2.9054,-3.97322 1.8786,-10.7594 -2.8821,-19.0469 -4.3348,-7.54593 -12.5662,-7.28336 -19.9651,0.63726 -3.9716,4.25159 -6.7242,5.657 -9.4104,4.80446 -5.5268,-1.75413 -6.4371,1.35579 -3.1355,10.71308 1.6042,4.54737 2.9171,12.11342 2.9171,16.81337 0,10.08148 2.75,11.14268 5.692,2.19642 z m -466.73879,-0.93832 c 0,-1.73224 1.45972,-4.76265 3.24393,-6.73421 3.95836,-4.37389 2.0077,-7.10833 -2.43847,-3.41839 -3.88041,3.2205 -6.48806,9.72125 -5.22799,13.03337 1.22157,3.21111 4.42253,1.12624 4.42253,-2.88077 z m 271.54874,-3.57253 c 0,-1.67519 -0.89364,-2.49355 -1.98544,-1.81858 -1.09203,0.67476 -1.47985,2.0454 -0.86154,3.04563 1.67466,2.70963 2.84698,2.20443 2.84698,-1.22705 z m 245.58165,-36.97575 c -1.7504,-3.6704 -5.5162,-8.20273 -8.3688,-10.07172 -4.6114,-3.02142 -5.7392,-3.08627 -10.1769,-0.58393 -7.7948,4.39537 -8.1044,8.40922 -0.5202,6.7434 4.6025,-1.01098 7.207,-0.47688 9.9994,2.05029 2.077,1.87935 3.7761,4.10273 3.7761,4.94082 0,0.83789 0.9745,3.99841 2.1658,7.02315 l 2.166,5.49954 2.0704,-4.46414 c 1.5818,-3.41077 1.3194,-6.03873 -1.1118,-11.13741 z m -581.68104,5.15923 c 5.35713,-5.09613 7.8966,-9.17971 7.8966,-12.69832 0,-6.71135 -3.05795,-6.6252 -6.60353,0.18559 -1.53806,2.9548 -5.07599,8.00971 -7.86221,11.23313 -9.72476,11.2517 -4.90135,12.19097 6.56914,1.27941 z m 602.91514,-0.54681 c 4.4266,-7.16263 -1.5991,-27.10584 -8.1902,-27.10584 -3.4387,0 -3.4008,1.76624 0.2249,10.4435 1.6117,3.85736 2.9303,9.67885 2.9303,12.93686 0,5.95648 2.5088,7.81278 5.035,3.72548 z m 34.4816,-22.01674 c 7.2023,-8.77493 1.7655,-20.7178 -9.4316,-20.7178 -5.4245,0 -9.3401,-4.75659 -8.0323,-9.75759 0.6073,-2.32222 0.065,-3.91752 -1.3324,-3.91752 -3.9913,0 -7.0452,4.42175 -7.0452,10.20066 0,5.72596 2.8882,7.79716 14.2866,10.245 4.6034,0.98852 5.3964,2.04111 4.884,6.48435 -0.4357,3.77824 -1.8763,5.48392 -5.0071,5.92855 -5.2116,0.74003 -5.693,3.33947 -1.0947,5.91274 4.1781,2.33824 8.4665,0.86817 12.7727,-4.37839 z m -649.75201,1.49391 c 12.84093,-6.09364 16.12589,-17.0263 7.51408,-25.00769 l -4.92363,-4.5628 9.31921,-1.33078 c 29.0434,-4.14747 40.54905,-15.6541 30.43318,-30.43592 -6.40191,-9.35496 -11.38883,-10.41536 -9.71909,-2.0667 2.55274,12.76415 -15.76175,27.51707 -34.16006,27.51707 -11.75142,0 -13.24533,2.4623 -4.69838,7.7446 17.64618,10.90591 5.54351,23.11056 -23.23226,23.42782 -9.87929,0.10937 -7.0503,3.42465 4.92637,5.77403 13.16581,2.58283 17.23454,2.4072 24.54058,-1.05963 z m -49.1005,-19.44465 c 11.14248,-5.15395 21.3447,-13.63897 23.29301,-19.37255 1.27551,-3.75363 20.71507,-20.44372 23.96741,-20.57774 2.74966,-0.1133 10.97778,-7.79324 9.70874,-9.06211 -2.66001,-2.66 -26.49066,11.79694 -39.38688,23.89434 -7.52131,7.05539 -18.22658,16.26988 -23.78942,20.47654 -17.32578,13.10212 -15.32258,14.59994 6.20714,4.64152 z m 643.70721,-10.74415 c 0,-4.76108 -4.5651,-4.08807 -5.5157,0.81309 -0.3737,1.9276 0.6228,3.25683 2.4419,3.25683 1.8124,0 3.0738,-1.67032 3.0738,-4.06992 z m 86.7749,2.88409 c 3.676,-1.41069 4.1187,-4.64759 0.6481,-4.73999 -8.954,-0.23815 -20.1192,-21.27418 -12.6983,-23.92442 1.4202,-0.50735 1.717,-1.59706 0.7093,-2.60491 -1.0078,-1.00787 -2.0975,-0.71111 -2.6048,0.70934 -1.583,4.43269 -8.2141,2.73053 -9.5122,-2.44198 -1.8554,-7.39199 -7.4309,-6.47009 -5.9079,0.97679 0.6591,3.22342 1.7377,8.49811 2.3971,11.72153 0.8056,3.94019 2.3699,5.86076 4.7733,5.86076 1.9663,0 5.093,2.56975 6.9484,5.71054 2.7196,4.60402 6.2896,7.55745 11.8282,9.78591 0.1816,0.0722 1.7192,-0.40127 3.4188,-1.05357 z M 933.68154,729.95427 c -1.78425,-1.97157 -3.24398,-4.05389 -3.24398,-4.62746 0,-0.57339 -7.25265,-11.99738 -16.11712,-25.38629 -18.21462,-27.51161 -19.99239,-30.36579 -26.54354,-42.61557 -2.58585,-4.83513 -5.91292,-10.17899 -7.39378,-11.87528 -1.48082,-1.6963 -2.69244,-3.94879 -2.69244,-5.00549 0,-1.05669 -1.658,-5.38291 -3.68426,-9.61419 -5.10746,-10.66483 -11.96397,-35.77722 -10.0854,-36.93825 0.85118,-0.5259 3.00716,2.86612 4.79137,7.53793 7.37264,19.30497 36.93022,55.13279 63.63692,77.13644 10.8253,8.9191 36.0517,23.21273 49.8583,28.25064 2.14893,0.78417 -0.48837,-2.27847 -5.86071,-6.80571 -27.70992,-23.35065 -65.26642,-66.16764 -75.31439,-85.86312 -5.13403,-10.06352 -3.91082,-11.63694 2.54493,-3.27383 5.94636,7.70281 26.08436,28.43291 32.47458,33.42921 10.63743,8.3172 47.11353,29.66973 59.19368,34.65118 13.515,5.5732 34.3673,10.73654 36.1521,8.95173 2.0337,-2.03348 -1.3935,-4.67825 -10.5431,-8.1359 -8.6175,-3.25664 -30.42308,-16.82783 -51.04183,-31.7675 -17.54297,-12.71083 -31.07625,-27.23008 -38.10894,-40.88567 -4.73669,-9.19728 -4.03618,-9.57082 4.27171,-2.27787 4.12028,3.61707 10.46297,8.33458 14.09489,10.48353 3.63192,2.14895 8.83193,5.45696 11.5559,7.35097 20.68149,14.38094 62.80217,27.6714 95.03037,29.98542 24.1955,1.73713 25.4549,-1.37279 3.2415,-8.00424 -49.2618,-14.70622 -73.0495,-26.14097 -100.73718,-48.42456 -3.65272,-2.93996 -3.2697,-2.89757 2.53386,0.28112 8.76863,4.80289 26.11847,10.80061 45.90932,15.87075 31.4975,8.0691 94.858,8.82749 115.956,1.38783 6.2571,-2.20638 6.346,-2.37028 1.9535,-3.60339 -2.5308,-0.71052 -12.345,-1.37962 -21.8096,-1.48668 -33.0961,-0.37451 -107.7656,-13.69973 -127.65275,-22.7804 -3.38567,-1.54607 -6.69507,-2.81102 -7.35409,-2.81102 -2.08698,0 -36.87489,-17.59421 -47.0509,-23.79646 -5.37246,-3.27441 -12.98688,-8.85737 -16.92119,-12.40665 -3.9342,-3.54928 -9.05861,-7.47306 -11.38771,-8.71965 -4.9268,-2.63675 -7.41872,-4.61926 -26.29139,-20.91863 -7.71686,-6.66466 -18.35219,-17.6536 -23.63352,-24.41985 -5.28153,-6.76606 -11.26616,-14.06036 -13.29926,-16.2093 -16.57072,-17.51587 -53.99541,-69.77298 -65.48719,-91.4414 -2.95911,-5.57984 -7.41797,-13.66164 -9.9084,-17.95953 -2.49024,-4.2979 -10.60271,-19.16724 -18.02733,-33.04318 -13.11911,-24.51811 -34.04438,-51.93789 -39.63615,-51.93789 -1.55759,0 -0.0606,4.67728 4.08574,12.77294 13.28128,25.92568 17.52388,57.16238 11.57579,85.22645 -3.65457,17.24276 -7.28962,23.78727 -17.22713,31.01458 -4.55011,3.30937 -13.10799,9.52178 -19.0176,13.80522 -5.90959,4.28344 -14.26119,11.17785 -18.55908,15.32101 -8.37679,8.07516 -20.24191,28.37255 -17.93452,30.68013 0.76893,0.76893 6.43746,-2.15501 12.59674,-6.49745 11.33627,-7.9929 31.56509,-19.01876 32.739,-17.84485 0.35165,0.35165 -5.00158,6.78423 -11.89598,14.29479 -6.89441,7.51058 -12.54438,14.25221 -12.55513,14.98129 -0.0196,0.72908 -1.26377,2.56976 -2.78425,4.09023 -4.40006,4.40007 -18.89491,28.74998 -24.10454,40.49338 -2.62172,5.90961 -6.00807,13.53173 -7.52561,16.93801 -3.06049,6.87038 -5.69119,18.22657 -4.22229,18.22657 0.51887,0 4.27152,-5.49445 8.33928,-12.20992 20.6043,-34.01528 35.3746,-52.15337 54.44415,-66.85823 15.48766,-11.94286 18.89334,-11.43121 9.4079,1.41304 -7.91184,10.71387 -25.76002,43.66503 -25.76002,47.55814 0,1.2376 -1.75764,6.22335 -3.9058,11.07958 -6.38882,14.44307 -13.0906,65.29751 -10.04946,76.25734 1.9827,7.14505 1.66056,7.81747 9.16565,-19.14498 2.99075,-10.74473 7.14701,-23.27211 9.23598,-27.83862 3.38987,-7.40997 4.5169,-8.30276 10.48198,-8.30276 4.22189,0 7.10969,-1.11042 7.84053,-3.01458 1.76643,-4.60343 -0.82188,-5.82911 -7.21479,-3.41604 -3.1824,1.20126 -5.78615,1.79164 -5.78615,1.31203 0,-1.61815 10.15925,-21.17084 17.13414,-32.97637 6.4654,-10.94321 17.55514,-23.5927 19.22234,-21.92551 0.40497,0.40499 -1.44508,6.30306 -4.11133,13.10663 -5.68143,14.49698 -13.55028,45.65945 -16.77937,66.44973 -2.16301,13.92654 -1.17293,58.7141 1.44878,65.54639 2.60258,6.78188 4.08847,1.37435 5.33017,-19.39678 1.90416,-31.84974 11.88661,-70.27291 26.1857,-100.79128 6.12078,-13.06403 7.6227,-10.30849 3.38244,6.20578 -5.24109,20.41206 -7.73054,62.43003 -5.32469,89.87422 2.15792,24.61658 9.44676,56.91603 12.42814,55.07361 0.91798,-0.56752 1.62616,-12.62468 1.57361,-26.79386 -0.14848,-39.92274 3.69658,-73.61158 11.63459,-101.95229 l 3.8302,-13.67512 0.11721,34.64006 c 0.0644,19.05177 1.10417,41.02964 2.30993,48.8397 2.04014,13.21543 15.95788,60.5667 19.47435,66.25652 3.7966,6.14286 4.08573,-2.11632 0.96097,-27.44186 -3.55651,-28.82304 -4.29927,-78.58132 -1.34466,-90.06021 l 1.76019,-6.83756 0.19984,6.37026 c 0.60737,19.34424 16.26304,88.28187 21.62368,95.21632 0.83067,1.07447 2.62582,5.47005 3.98923,9.76794 3.25351,10.25536 16.86845,37.43329 19.59703,39.11963 4.42722,2.73619 3.79367,-1.19932 -3.89468,-24.19852 -4.34731,-13.00484 -7.90421,-25.77525 -7.90421,-28.37859 0,-2.60336 -2.19779,-15.97469 -4.88397,-29.71408 -4.8746,-24.93267 -6.43844,-49.62387 -3.14294,-49.62387 0.95765,0 5.02835,9.45049 9.04629,21.00107 4.01775,11.55058 10.84124,31.11088 15.16316,43.46733 10.13131,28.96585 34.8655,80.09711 38.74611,80.09711 3.11049,0 1.82679,-5.15063 -5.0391,-20.21671 -6.8227,-14.97132 -15.40658,-41.52331 -21.56917,-66.71795 -8.69483,-35.54789 -10.5822,-70.11077 -2.21362,-40.53696 5.05043,17.84701 19.09711,46.70521 33.04398,67.88719 11.78288,17.89526 16.68128,24.69002 30.71433,42.60481 6.14364,7.84327 18.99486,20.19718 25.3966,24.4136 2.68617,1.76938 5.62385,4.40301 6.52811,5.85237 0.90437,1.44956 2.14446,2.13527 2.75573,1.524 0.61115,-0.61109 -0.34847,-2.72428 -2.13272,-4.69584 z m 355.60176,-12.40861 c 2.694,-2.53087 4.5216,-6.51912 4.5216,-9.86758 0,-4.60694 -1.2691,-6.15008 -7.04,-8.5614 -4.1601,-1.7383 -9.3367,-2.4371 -12.6545,-1.70841 -8.337,1.8311 -13.8633,-0.51321 -13.142,-5.57495 0.4049,-2.84326 2.6815,-4.83982 6.9514,-6.09696 7.2452,-2.13292 8.0871,-4.15333 2.4732,-5.93519 -9.4199,-2.98978 -21.3219,10.20711 -16.3816,18.16387 3.5338,5.691 11.3985,8.50006 17.405,6.21652 7.3767,-2.80458 12.6205,-0.7369 12.6205,4.97638 0,5.1854 -6.3458,9.70991 -11.0737,7.89561 -4.1273,-1.58397 -7.6303,0.87463 -4.2752,3.00052 5.0614,3.207 15.9191,1.88462 20.5953,-2.50841 z M 518.2305,636.68197 c 0,-0.60894 -2.09405,-3.90561 -4.65344,-7.32596 -10.40091,-13.89998 -11.89716,-18.84684 -11.77917,-38.94146 0.0625,-10.4761 -0.54388,-19.04748 -1.34582,-19.04748 -0.80175,0 -3.94273,-2.04814 -6.97997,-4.55147 -3.03725,-2.50332 -7.18589,-5.16118 -9.21919,-5.90628 -3.49145,-1.27921 -3.63543,-0.45558 -2.58948,14.808 0.60933,8.88922 2.47091,20.58984 4.13712,26.00108 3.33223,10.82249 16.45918,29.76976 23.23344,33.5351 4.5833,2.54768 9.19651,3.26426 9.19651,1.42847 z m 81.0739,-2.68912 c 3.25506,-1.30636 2.44003,-1.95397 -4.88397,-3.87983 -23.26176,-6.11668 -27.88122,-8.32403 -39.43239,-18.84274 -10.0223,-9.12618 -23.08242,-25.80573 -23.08242,-29.47906 0,-3.97692 5.64059,-3.1189 11.73852,1.78578 3.00579,2.41756 10.03089,7.03292 15.6117,10.25633 5.58063,3.22343 12.47914,7.73153 15.32962,10.0178 11.32475,9.08321 59.9476,19.54429 62.13835,13.369 0.39228,-1.10554 -3.47113,-3.21658 -8.58523,-4.69115 -24.1358,-6.95966 -51.48642,-26.42267 -54.51252,-38.79201 -0.71326,-2.91514 -2.22534,-5.90589 -3.36038,-6.6463 -1.38939,-0.90627 -1.02113,-3.45922 1.12722,-7.81436 l 3.19079,-6.46832 -1.00999,6.8823 -1.01001,6.88228 11.41677,2.29293 c 18.69604,3.75519 23.22269,4.26839 25.23704,2.86181 2.08819,-1.45816 8.64598,-21.31891 8.64598,-26.1851 0,-1.65841 -3.29667,-5.50072 -7.32595,-8.53856 -4.02927,-3.03783 -7.61899,-6.21905 -7.97708,-7.06944 -1.44215,-3.42367 -6.09559,-1.14343 -12.7917,6.26828 -7.66667,8.48638 -10.32472,9.98889 -7.13861,4.03572 1.11237,-2.07842 2.02235,-4.05643 2.02235,-4.39557 0,-0.33934 -7.25269,-0.63374 -16.11709,-0.65425 -21.45216,-0.0489 -38.79905,-7.10365 -45.26972,-18.40769 -1.1577,-2.02235 -4.93223,-7.71062 -8.38792,-12.6403 -4.38582,-6.25675 -5.4261,-8.96325 -3.44497,-8.96325 1.56092,0 4.20784,3.29667 5.88207,7.32595 1.67422,4.02927 7.41679,11.40152 12.76122,16.38279 11.05868,10.30693 20.33725,13.45221 39.32436,13.3303 11.46776,-0.0743 13.0658,-0.6564 23.06093,-8.41 18.16017,-14.08771 24.55817,-27.59501 23.03633,-48.63379 -0.66169,-9.14748 -1.88893,-12.38849 -6.5502,-17.29745 -6.87115,-7.23668 -22.28262,-15.44468 -28.99886,-15.44468 -2.65843,0 -5.37686,-0.87911 -6.04088,-1.95359 -1.57322,-2.54533 7.93684,-2.54826 12.6911,0 2.64105,1.41361 4.40338,1.18935 6.40776,-0.81503 3.31134,-3.31134 8.28497,-25.26948 6.4107,-28.30222 -0.72615,-1.17489 -4.13145,-2.13625 -7.56703,-2.13625 -3.43578,0 -9.14846,-0.83224 -12.695,-1.84927 -3.54655,-1.01723 -7.63599,-1.39349 -9.08789,-0.83652 -2.58616,0.99241 -5.83654,7.61977 -7.54495,15.38411 -0.47297,2.14895 -0.96176,0.2229 -1.0864,-4.28031 -0.12503,-4.50302 0.6525,-8.73078 1.72697,-9.39481 1.07447,-0.66403 1.95359,-3.22947 1.95359,-5.70076 l 0,-4.49345 9.27954,4.54756 c 16.95735,8.31038 39.55352,5.51517 54.80733,-6.77992 10.34933,-8.34182 17.11245,-19.5523 20.04498,-33.22702 3.05385,-14.23951 0.66442,-16.30191 -10.30498,-8.89488 -11.23821,7.58852 -21.96086,7.45001 -38.78908,-0.50129 -16.99992,-8.03237 -26.13373,-17.36857 -29.9987,-30.66371 -3.83822,-13.20254 -3.94391,-36.77023 -0.21157,-47.1305 4.7474,-13.17754 3.38693,-13.91326 -7.0888,-3.83372 -7.62798,7.33924 -9.05175,8.19745 -5.86075,3.53208 2.31812,-3.38928 4.21485,-7.15072 4.21485,-8.35882 0,-2.59475 -23.11036,13.70697 -42.19965,29.76741 -18.81226,15.82699 -34.46245,23.23949 -49.06631,23.23949 -16.73072,0 -24.45658,-3.88763 -29.84476,-15.01841 -3.79661,-7.84286 -4.28677,-11.1878 -3.32306,-22.68251 1.32297,-15.77933 -0.0489,-16.63716 -9.85077,-6.15713 -9.50753,10.16589 -16.03974,25.17237 -17.42777,40.03625 -3.36544,36.03901 21.82979,56.93556 63.12981,52.35909 10.28388,-1.13974 15.1915,-2.68991 18.55908,-5.86253 2.51799,-2.37224 6.33646,-5.23972 8.48541,-6.37221 5.95357,-3.13747 -4.42566,7.72957 -11.23313,11.76099 -7.16166,4.24104 -6.73186,14.4206 1.4394,34.08484 1.09031,2.62366 0.4634,3.41877 -2.69556,3.41877 -4.9584,0 -4.96269,0.0469 -0.82402,8.72492 3.54987,7.44395 9.63236,9.76208 7.86319,2.9966 -1.51442,-5.79102 0.80918,-4.72083 7.65084,3.52369 l 6.10809,7.36054 -10.12115,0 c -7.13684,0 -12.39395,1.35442 -17.82942,4.59328 -17.3336,10.32862 -23.68726,13.35921 -30.66312,14.62631 -6.22765,1.13113 -7.33533,0.80488 -7.38809,-2.17668 -0.0761,-4.29575 -4.44949,-10.34484 -7.47931,-10.34484 -3.69481,0 -2.64418,11.14033 1.19228,12.63992 2.95929,1.1569 2.71822,1.70723 -1.79378,4.0949 -7.46252,3.94899 -9.14709,13.26937 -3.72394,20.60469 5.37745,7.27341 3.94566,7.14154 -4.67903,-0.43096 -6.7979,-5.9688 -9.46396,-6.33822 -19.08793,-2.64515 -2.09991,0.80566 -2.59397,-0.27468 -2.00633,-4.38718 0.90901,-6.36186 -4.59875,-20.79633 -7.29842,-19.12777 -1.01273,0.62592 -2.77721,4.61379 -3.92123,8.86167 -2.19486,8.15173 -0.10937,15.55446 4.38091,15.55446 1.24836,0 -1.42005,2.71335 -5.92952,6.02975 -4.50967,3.31641 -8.19921,6.68636 -8.19921,7.48889 0,0.80234 -2.64457,1.45894 -5.87658,1.45894 -14.83555,0 -20.72445,17.62703 -9.8623,29.51969 3.16285,3.46273 6.04635,6.29603 6.40776,6.29603 0.36142,0 12.28006,-3.95602 26.48597,-8.79116 29.21571,-9.94376 37.8871,-10.69198 55.4313,-4.78179 12.76533,4.30043 15.28448,6.18154 22.48345,16.78992 4.11621,6.06569 4.49989,8.2332 3.3842,19.12191 -1.23779,12.08138 -1.1741,12.30174 3.91695,13.57958 2.84637,0.71443 8.46645,4.2725 12.48948,7.90696 6.81743,6.15907 7.89425,6.50213 15.85082,5.04709 9.89493,-1.80941 11.50117,-1.6709 16.78485,1.44878 3.27499,1.93346 1.76331,2.31637 -9.3409,2.36619 -9.43445,0.043 -13.54656,0.83731 -14.28501,2.76179 -1.27297,3.31719 10.84572,22.93824 20.45719,33.12191 9.10684,9.64896 24.76426,17.53541 43.21726,21.76824 8.05855,1.84829 15.53103,3.64267 16.6055,3.98728 3.31915,1.06451 7.64127,0.72985 11.72153,-0.90764 z M 537.76638,571.6941 c 0,-2.28237 5.50521,-3.70263 19.53587,-5.03967 l 10.74475,-1.02406 -12.72822,2.46972 c -7.00068,1.35833 -13.81382,3.14059 -15.14031,3.96051 -1.32668,0.81992 -2.41209,0.65504 -2.41209,-0.3665 z m -54.21206,-64.85325 c -9.32253,-4.14219 -9.69996,-4.92813 -4.90996,-10.22118 3.22889,-3.56764 3.21073,-3.88217 -0.37333,-6.50291 -6.09519,-4.45692 0.61128,-3.45413 14.81327,2.21478 6.84636,2.73288 10.47065,4.57355 8.05426,4.09063 -6.77758,-1.35463 -7.34451,2.38825 -1.31516,8.68174 l 5.46302,5.70193 -6.71468,-0.1387 c -3.69306,-0.0762 -10.45091,-1.79808 -15.01742,-3.82708 z m 78.45589,-4.04882 c -6.41831,-1.81156 -16.42948,-9.96603 -16.42948,-13.38227 0,-1.12586 1.71154,-0.33543 3.80325,1.75627 9.86699,9.86719 25.29876,12.29276 31.40412,4.93634 2.72525,-3.28359 5.81798,-3.79935 5.81798,-0.97016 0,5.4638 -15.39271,10.2577 -24.59587,7.65982 z m -94.84044,-16.34782 c -0.50521,-0.50519 -5.70663,-2.28003 -11.55879,-3.9439 -10.10787,-2.87411 -10.21903,-2.97258 -2.22163,-1.9702 8.9322,1.1196 23.02128,6.40386 17.79231,6.67347 -1.70138,0.0879 -3.5067,-0.25417 -4.01189,-0.75937 z m 76.58123,-3.26816 c -0.0918,-2.37576 -3.26269,-3.76299 -12.20113,-5.33739 -6.64259,-1.1702 -13.01617,-3.14195 -14.16352,-4.38171 -1.5572,-1.68262 -0.84746,-1.87231 2.79774,-0.74822 2.68618,0.82833 9.3741,1.90123 14.86211,2.38397 8.57821,0.75487 11.96359,-0.12113 24.1317,-6.24973 7.78426,-3.92007 13.76049,-7.52053 13.2801,-8.00091 -0.48038,-0.48039 -4.30669,-2.65317 -8.50299,-4.8283 -9.12267,-4.72885 -2.01103,-3.16931 11.39157,2.49805 9.60305,4.06092 10.63904,7.36151 2.31012,7.36151 -8.03433,0 -29.95476,10.97233 -31.9734,16.00418 -1.21552,3.03041 -1.84908,3.4561 -1.9323,1.29855 z m 22.66807,0.93089 c -2.12277,-2.12276 -1.48512,-9.45517 1.04185,-11.98213 3.80813,-3.80814 10.72618,-2.69752 16.59416,2.66391 l 5.48138,5.00802 -5.24617,-3.19647 c -2.88525,-1.75803 -7.71296,-2.91279 -10.72792,-2.56603 -7.0759,0.81347 -8.51569,6.79145 -2.24175,9.3069 4.26273,1.70899 4.29145,1.82797 0.47081,1.94421 -2.23861,0.0683 -4.65617,-0.46222 -5.37236,-1.17841 z m -126.69838,-5.893 c 1.41029,-0.56439 3.09525,-0.49485 3.74443,0.15433 0.64899,0.64919 -0.5048,1.11101 -2.56408,1.02603 -2.27593,-0.0938 -2.73873,-0.55658 -1.18035,-1.18017 z m 53.11317,-8.43344 c 0,-1.07448 0.87911,-1.95359 1.95359,-1.95359 1.07447,0 1.95359,0.87911 1.95359,1.95359 0,1.07447 -0.87912,1.95358 -1.95359,1.95358 -1.07448,0 -1.95359,-0.87911 -1.95359,-1.95358 z m 43.4941,-20.93778 c 2.96965,-0.44893 7.36521,-0.43701 9.76794,0.0274 2.40291,0.46378 -0.0274,0.83124 -5.39914,0.81659 -5.37237,-0.0196 -7.33826,-0.39423 -4.3688,-0.84316 z m 22.05581,-10.80803 c 0.73962,-2.41756 2.09073,-5.71424 3.00247,-7.32595 1.29972,-2.29703 1.6707,-2.00536 1.71739,1.34993 0.0332,2.35408 0.95277,4.8324 2.04482,5.50736 2.94113,1.81781 0.31941,4.86424 -4.18595,4.86424 -3.165,0 -3.66356,-0.84981 -2.57873,-4.39558 z m -7.0634,-52.74687 c -2.61956,-3.49204 -5.8592,-8.98651 -7.19936,-12.20992 -2.22181,-5.34444 -2.17883,-5.5267 0.4884,-2.06847 1.60877,2.08565 2.92491,4.54151 2.92491,5.45755 0,0.91603 2.19779,4.03572 4.88397,6.93269 4.27718,4.61281 6.15809,8.23731 4.27445,8.23731 -0.33504,0 -2.7526,-2.85713 -5.37237,-6.34916 z m -15.12682,-43.46734 c 0.039,-3.22341 0.47765,-4.30551 0.97308,-2.40467 0.49523,1.90065 0.46261,4.53799 -0.0722,5.86077 -0.53528,1.32258 -0.94046,-0.23267 -0.90061,-3.4561 z m -0.0293,-24.97407 c -1.83461,-2.21069 -1.05689,-5.16783 3.76125,-14.303 6.48825,-12.30175 10.78361,-18.19123 8.39906,-11.51621 -0.76777,2.14895 -2.11652,4.84998 -2.9974,6.0022 -0.88086,1.15223 -2.78249,6.70941 -4.22579,12.34941 -2.13275,8.33323 -3.05757,9.7322 -4.93712,7.4676 z m 109.24738,250.36382 c 7.89094,-2.6184 11.5246,-6.66095 11.5246,-12.82198 0,-3.36897 -1.11257,-4.51611 -4.39557,-4.53214 -2.41756,-0.0196 -7.64028,-0.55794 -11.60626,-1.21356 -6.62853,-1.09596 -7.5346,-0.66071 -11.22572,5.39385 -2.20853,3.62215 -4.01852,8.56394 -4.02263,10.98152 0,3.68524 1.05045,4.39556 6.53885,4.39556 3.60028,0 9.53431,-0.99144 13.18673,-2.20325 z M 367.59968,484.68012 c 2.22514,-2.68129 1.06491,-9.03886 -1.64941,-9.03886 -0.79042,0 -3.06498,-3.02298 -5.05491,-6.71799 -1.98992,-3.69502 -4.32603,-6.2804 -5.19166,-5.74551 -4.43113,2.73874 1.66857,24.18503 6.87858,24.18503 1.53494,0 3.79289,-1.20712 5.0174,-2.68267 z m 16.68248,-8.11422 c 3.67645,-2.78114 3.68602,-3.15251 0.34949,-13.73705 -2.81747,-8.93806 -3.91791,-10.4728 -6.16884,-8.60458 -3.89155,3.22948 -5.68025,14.99398 -3.13063,20.58985 2.4834,5.45051 3.73624,5.69568 8.94998,1.75178 z m 41.11795,-20.3476 c 1.05688,-3.3295 -6.98936,-19.6488 -9.68785,-19.6488 -0.48586,0 -1.88014,1.86236 -3.0982,4.13849 -1.74827,3.26639 -1.49449,5.73592 1.20478,11.72153 3.72647,8.26387 9.55578,10.17096 11.58127,3.78878 z m 27.04956,-29.25869 c 2.7868,-4.21077 5.63631,-9.92502 6.33217,-12.69832 1.17919,-4.69799 0.80098,-5.04202 -5.54467,-5.04202 -9.81971,0 -11.96847,3.58386 -11.42068,19.04748 0.30613,8.63876 4.38308,8.13767 10.63318,-1.30714 z m -22.15954,-4.31821 c 6.43649,-10.46069 6.14325,-12.64851 -1.84146,-13.74154 -3.53013,-0.48332 -5.46243,0.63608 -7.29704,4.22658 -2.66313,5.21199 -3.40822,16.07609 -1.25068,18.23362 2.59046,2.59047 4.32759,1.1327 10.38918,-8.71866 z m -22.64814,-2.7528 c 5.47825,-10.48452 5.53724,-10.89536 1.95359,-13.60831 -4.91191,-3.71846 -7.3789,-3.60632 -10.94459,0.497 -4.23284,4.87108 -5.76972,13.06598 -3.54713,18.9119 2.91046,7.65514 6.3349,6.07097 12.53813,-5.80059 z m 70.32995,5.44777 c 0.56595,-1.88033 1.50719,-7.59457 2.09131,-12.69833 1.17724,-10.28289 0.19751,-10.95942 -8.99119,-6.20771 -6.23312,3.22323 -6.40894,5.00372 -1.71311,17.3547 2.16947,5.70584 7.09525,6.59316 8.61299,1.55134 z m -93.00349,-4.88397 c 1.18895,-2.41756 4.04803,-7.24371 6.35365,-10.7248 l 4.19201,-6.32944 -5.54096,-2.10655 c -4.99298,-1.8983 -6.07312,-1.5109 -10.92407,3.91811 -5.79865,6.48983 -6.52948,9.93889 -3.36076,15.85962 2.69713,5.03968 6.62657,4.77867 9.28013,-0.61694 z m -17.31504,-5.77676 c 1.20126,-3.44573 4.00759,-8.20623 6.23644,-10.57867 l 4.05252,-4.31353 -5.32098,-3.48637 c -5.20867,-3.41293 -5.39777,-3.39123 -8.97558,1.02719 -2.28119,2.81708 -3.65496,7.61412 -3.65496,12.76259 0,12.49672 4.05858,14.92718 7.66256,4.58879 z M 475.95994,400.7278 c 7.30212,-3.11031 7.50138,-3.44964 6.19698,-10.54781 -2.01123,-10.94516 -3.36409,-11.50721 -18.15157,-7.54162 -18.61243,4.99101 -40.38165,6.1368 -56.41475,2.96905 -12.73133,-2.51544 -24.92445,-2.7229 -32.45944,-0.55267 -9.4245,2.71471 2.23763,12.443 14.91603,12.443 3.74405,0 9.28228,1.01624 12.30702,2.25833 14.69899,6.03601 60.30218,6.63791 73.60573,0.97172 z M 651.07546,253.14127 c 0,-1.87896 -4.75113,-4.15509 -8.46255,-4.05408 -1.25519,0.0351 -0.57573,1.35285 1.50992,2.93038 4.30493,3.25604 6.95263,3.68407 6.95263,1.1237 z m -24.60231,-6.0569 c -1.24463,-1.24463 -7.16557,-1.33548 -16.50782,-0.25339 l -14.56712,1.68732 16.50782,0.25338 c 10.93227,0.16801 15.85239,-0.40205 14.56712,-1.68731 z M 1115.541,405.97183 c 1.3431,-0.54193 3.5409,-0.54193 4.884,0 1.3431,0.54211 0.2441,0.98538 -2.4421,0.98538 -2.6861,0 -3.785,-0.44327 -2.4419,-0.98538 z m 38.5715,-14.57886 c 10.8281,-11.98565 17.0128,-27.30646 18.0394,-44.68852 0.7525,-12.74227 0.2512,-15.79768 -3.8472,-23.44305 -8.4798,-15.81918 -25.6969,-23.97833 -43.5359,-20.63184 -9.2087,1.72756 -23.7699,14.99828 -28.7611,26.21188 -2.0833,4.68059 -4.5047,7.75749 -5.3808,6.83735 -3.1181,-3.27381 -7.8085,-23.05468 -7.8085,-32.93006 0,-18.46824 7.4145,-35.42559 22.9588,-52.50756 4.2715,-4.69428 9.7646,-7.91243 17.5173,-10.26298 13.3421,-4.04529 16.1779,-5.8844 16.1779,-10.49213 0,-1.88757 2.3393,-8.54148 5.1983,-14.78651 l 5.1984,-11.35465 -7.1023,-6.13935 c -8.007,-6.92156 -14.9088,-20.44215 -14.9731,-29.33234 -0.024,-3.2662 1.3154,-11.17824 2.9753,-17.58229 2.3678,-9.13421 5.051,-13.74858 12.4514,-21.41152 8.2167,-8.50788 9.2378,-10.45033 7.9172,-15.05944 -1.7331,-6.0487 -7.9183,-15.203793 -15.1729,-22.45825 -4.7942,-4.794298 -5.0742,-4.842161 -7.6567,-1.311638 -1.4743,2.015712 -3.1852,5.862525 -3.8022,8.548706 -0.617,2.686192 -2.7343,8.400432 -4.705,12.698322 -1.9709,4.29789 -6.5667,14.40771 -10.2132,22.46626 -7.7996,17.23729 -26.1655,42.58861 -39.0988,53.97002 -17.2769,15.20361 -9.0522,17.15563 12.6341,2.99876 14.3402,-9.36139 28.9993,-24.01741 28.9993,-28.9934 0,-1.4183 0.8791,-2.57873 1.9536,-2.57873 3.6102,0 1.9965,9.92579 -3.4078,20.96337 -7.3732,15.05806 -21.8619,30.0999 -39.4393,40.94525 -19.874,12.26228 -22.9159,14.73044 -28.8747,23.4286 -7.0135,10.23719 -12.0312,27.25196 -14.254,48.33275 -1.6338,15.49448 -1.3547,19.8082 2.2111,34.17039 2.2444,9.04043 5.746,20.322 7.7812,25.07021 5.3006,12.36542 4.761,12.30193 -5.3471,-0.62906 -9.49,-12.14038 -31.9775,-45.26971 -31.9775,-47.11039 0,-0.5892 -2.94699,-6.02135 -6.54882,-12.0716 -3.60207,-6.05007 -13.15921,-23.75739 -21.23841,-39.34937 -23.86385,-46.05506 -50.74545,-83.76555 -82.59054,-115.86106 -25.15629,-25.35405 -40.08757,-36.76124 -75.97459,-58.043053 -9.17405,-5.440544 -49.25523,-25.33979 -51.03944,-25.33979 -0.69723,0 -7.19897,-2.603158 -14.44815,-5.784769 C 721.72639,35.94272 640.04941,22.417449 612.31217,25.258552 c -10.19656,1.044388 -9.38777,0.603073 10.43626,-5.695686 12.50082,-3.971839 25.57521,-6.840292 31.25742,-6.857874 21.86396,-0.06643 88.82944,10.36769 98.24203,15.308901 1.8395,0.965658 7.30055,2.349189 12.13568,3.074752 11.56603,1.735368 9.71167,0.478043 -25.76353,-17.466248 -32.27366,-16.3249636 -50.73683,-23.770674 -77.77663,-31.365247 -10.2075,-2.867085 -19.4382,-6.124108 -20.51267,-7.237848 -1.33313,-1.381773 -0.84552,-1.634567 1.53493,-0.795305 1.91882,0.676332 12.02863,1.750609 22.46626,2.387284 19.31571,1.178014 36.55437,3.693062 45.35118,6.616607 2.68618,0.892595 10.59821,3.194898 17.5823,5.116251 6.98407,1.9213544 13.57743,4.1312534 14.6519,4.9109314 1.07448,0.779676 10.79123,5.2985198 21.59301,10.0420274 10.80178,4.7433119 24.62321,11.9323202 30.71451,15.9754652 6.09128,4.04295 12.63796,6.992673 14.54837,6.554484 2.64535,-0.60659 -1.42222,-5.648996 -17.06498,-21.1548184 C 765.80929,-20.999677 729.95119,-45.091128 697.7291,-58.467743 l -12.46585,-5.175055 9.76794,1.265339 c 15.12566,1.959254 47.9936,13.712046 65.63117,23.46807 27.64894,15.293467 41.16445,25.254227 64.26387,47.3610286 12.34629,11.8156914 22.87456,21.0563564 23.39617,20.5347494 1.75178,-1.751978 -9.57688,-21.0864429 -22.21503,-37.9140626 -20.81762,-27.7188754 -66.3204,-68.3453094 -83.70167,-74.7318954 -5.13403,-1.886413 -4.24417,-5.78714 0.97679,-4.282717 9.45654,2.724907 32.33207,14.593089 43.76115,22.70399 26.74775,18.982048 68.29236,61.5165434 85.78439,87.828247 14.7801,22.232609 17.18457,21.118869 8.69171,-4.026149 -14.62807,-43.309484 -39.9581,-85.903964 -70.61399,-118.742502 -7.72645,-8.27659 -2.78621,-8.65869 8.70303,-0.67313 24.00315,16.6835 46.56709,42.775789 64.35725,74.420984 4.59735,8.178109 19.04966,41.036484 21.8868,49.761793 0.95313,2.930968 1.63396,3.235532 2.84676,1.273348 2.6298,-4.25511 -9.94297,-54.969668 -20.49529,-82.671154 -6.60841,-17.348261 -9.74661,-23.731391 -17.44218,-35.476222 -5.99361,-9.147349 1.25615,-3.89238 9.75998,7.074386 9.55748,12.325949 17.10034,24.066425 22.54861,35.097172 2.26446,4.584485 5.75156,11.41208 7.74952,15.172737 5.26711,9.914068 14.71444,34.0256424 19.51924,49.816494 6.22437,20.456602 7.77457,23.736481 9.72634,20.578505 1.85181,-2.996604 1.8763,-2.761588 -4.85937,-46.951944 -4.17374,-27.382661 -9.46198,-50.354715 -15.51514,-67.3987 -1.06351,-2.994419 -0.32431,-2.671407 3.16458,1.382662 5.58515,6.490207 22.91597,45.766318 29.56094,66.992832 4.24531,13.5616135 11.87081,47.953158 15.97488,72.048909 5.07387,29.790455 9.42061,-47.375092 5.03025,-89.304365 -1.37507,-13.133386 -3.71624,-24.459898 -6.05707,-29.304804 -4.19745,-8.687806 -5.18011,-14.478044 -1.34465,-7.923165 20.58598,35.181976 26.38104,59.7934734 28.0094,118.951824 1.43803,52.246558 2.6533,55.952528 10.20457,31.121238 9.0086,-29.624398 12.7612,-54.680918 12.9042,-86.1639646 0.074,-16.3052324 0.7138,-28.6128364 1.4216,-27.3502324 0.7078,1.262799 2.887,8.010102 4.8428,14.994179 5.1155,18.2672203 5.2549,94.642742 0.2062,112.977547 -1.873,6.802201 -3.3859,14.274671 -3.362,16.605501 0.043,4.12969 0.1386,4.11308 3.8077,-0.64624 4.7314,-6.13876 14.6267,-31.58269 19.7539,-50.793296 4.1677,-15.615025 8.3044,-52.810555 7.224,-64.9567928 -0.7045,-7.9186738 1.7225,-10.1225172 3.2269,-2.9303828 0.5056,2.417566 1.9055,11.9026264 3.1109,21.0778466 3.7722,28.714223 -3.9273,79.110537 -16.9093,110.678765 -3.6204,8.80365 -6.5824,17.38244 -6.5824,19.06408 0,5.01193 7.1517,-0.52473 13.7576,-10.65076 3.1543,-4.83513 9.2963,-13.62627 13.6491,-19.53587 7.299,-9.90959 17.5259,-29.431205 17.5259,-33.454029 0,-2.394515 -7.2806,-2.133704 -12.0762,0.432919 -2.9843,1.597051 -3.8116,1.564229 -3.2472,-0.128941 0.6472,-1.942261 7.0628,-5.866629 19.2305,-11.763531 1.6137,-0.78202 4.5398,-7.90851 6.5119,-15.859816 7.6546,-30.860626 10.6815,-41.71437 11.1092,-39.836191 0.2451,1.074473 0.2634,12.506284 0.041,25.403869 l -0.4041,23.45048 31.9079,0 c 32.5382,0 37.5638,0.934199 48.9081,9.163886 5.8025,4.209401 6.0598,0.138703 0.4556,-7.209904 -10.5178,-13.789599 -42.5264,-37.216438 -55.4767,-40.602983 -2.4058,-0.629055 -3.8741,-1.953393 -3.2624,-2.942885 0.672,-1.087367 5.5196,-1.107879 12.2544,-0.05079 12.437,1.950267 16.3306,1.17899 16.3306,-3.235142 0,-5.076788 3.6104,-3.297656 4.2659,2.10206 0.4875,4.019118 2.473,5.800203 9.4093,8.441649 13.8479,5.273317 23.7571,10.177214 32.5861,16.126475 13.9018,9.367457 15.5838,7.506463 5.559,-6.150286 -8.8332,-12.032925 -22.056,-24.136184 -31.0128,-28.386411 -3.9228,-1.8611826 -7.1323,-4.1632912 -7.1323,-5.1152742 0,-2.9610532 12.5593,-1.9043576 23.9519,2.0153213 25.3208,8.7116349 44.784,28.5778629 52.6396,53.7295269 5.1242,16.406623 5.1635,16.473822 7.4889,12.796779 3.1365,-4.959572 2.2257,-38.949072 -1.2903,-48.155741 -1.7422,-4.562019 -2.5569,-9.86601 -1.8105,-11.786778 1.214,-3.123787 1.8579,-2.913776 6.0982,1.988753 2.6072,3.014776 4.7407,6.700806 4.7407,8.191003 0,1.490392 1.6668,5.617151 3.704,9.170724 7.7697,13.552235 10.5391,53.589463 5.1407,74.315457 -3.3674,12.92807 -1.4083,19.92446 8.8511,31.60925 14.9184,16.99114 55.2176,19.89555 77.4033,5.57866 2.3414,-1.5111 7.1487,-2.46737 10.6823,-2.12491 7.6998,0.74608 15.3409,10.61052 15.3409,19.80509 0,3.24843 1.447,7.5051 3.2153,9.45927 3.8943,4.30317 6.0134,22.02358 2.8659,23.96877 -1.2934,0.7994 -3.0257,-0.88634 -4.2555,-4.14181 -1.1409,-3.01946 -4.312,-7.83603 -7.0473,-10.70351 -2.7352,-2.86747 -4.3856,-6.16415 -3.6676,-7.32595 2.0203,-3.26894 -3.0913,-2.35329 -10.6467,1.90709 -6.0809,3.42914 -6.297,3.805 -1.9536,3.39729 2.6862,-0.2522 5.9828,0.22545 7.3259,1.06158 2.5169,1.56678 3.3633,16.15168 1.2564,21.64243 -1.4377,3.7462 -4.6751,4.09785 -4.6751,0.50794 0,-1.42026 -2.6127,-6.03561 -5.8063,-10.25634 -3.1935,-4.22073 -5.8308,-9.65209 -5.8607,-12.06966 -0.037,-3.02982 -1.2326,-4.39557 -3.8463,-4.39557 -5.0972,0 -6.5964,2.91398 -3.0241,5.87874 3.107,2.57854 3.8587,19.32606 1.1749,26.16909 -1.2202,3.1105 -2.4791,1.91412 -7.6772,-7.29626 -3.4195,-6.05945 -6.2175,-12.59595 -6.2175,-14.52571 0,-2.14934 -2.4098,-4.41803 -6.2204,-5.85626 -7.5751,-2.85928 -8.1121,-2.44551 -5.5556,4.27854 3.8341,10.08442 -4.5141,18.26391 -21.0218,20.59727 -7.813,1.10436 -17.3739,4.64192 -28.7167,10.62498 -9.3523,4.9332 -19.5571,8.96931 -22.6774,8.96931 -7.0653,0 -7.0802,1.29796 -0.1133,9.81131 3.0584,3.73682 6.6059,8.77219 7.883,11.18976 3.545,6.71019 6.0235,5.28836 3.9394,-2.25991 -1.5052,-5.4509 -1.0882,-7.92571 2.3041,-13.67512 2.2778,-3.86068 4.5227,-7.01963 4.9884,-7.01963 0.4658,0 1.5936,1.97801 2.5065,4.39557 2.0073,5.31591 -0.6848,11.23313 -5.1104,11.23313 -1.753,0 -2.6886,0.49876 -2.079,1.10828 1.8068,1.80687 19.079,2.26597 19.079,0.50734 0,-0.88849 -1.4833,-1.61562 -3.296,-1.61562 -2.6748,0 -2.3504,-1.01234 1.7215,-5.37236 2.7594,-2.9548 6.3727,-8.00971 8.0291,-11.23314 2.552,-4.96562 3.2166,-5.3372 4.352,-2.4324 1.3604,3.48031 0.4596,12.74462 -1.9663,20.22256 -1.1622,3.5823 -0.3801,4.26977 6.0428,5.31201 8.1838,1.32804 11.891,-0.1309 4.9469,-1.94637 -4.3819,-1.14597 -4.3684,-1.20497 1.6132,-7.05323 3.3177,-3.24354 7.5122,-8.40297 9.3212,-11.46522 1.8089,-3.06225 3.9783,-5.56772 4.8213,-5.56772 2.2333,0 1.8755,16.42577 -0.4939,22.65732 -1.4122,3.71435 -1.3982,5.95727 0.047,7.40156 2.5151,2.51524 15.8346,-11.29194 19.5529,-20.26829 2.7002,-6.51872 6.9779,-7.74011 8.633,-2.46464 1.5774,5.02815 -3.9233,23.89766 -7.791,26.72586 -3.132,2.29 -3.1244,2.51857 0.125,3.76594 4.4738,1.71661 15.1005,-6.29563 21.8229,-16.4543 8.3749,-12.65514 11.7677,-4.38365 4.6412,11.31518 -5.7505,12.66785 -1.0339,12.90541 10.0706,0.50755 7.8838,-8.80228 9.3927,-9.78709 9.3927,-6.13016 0,5.41261 -6.1584,17.73194 -11.0965,22.19764 -11.445,10.34992 -26.1755,11.03328 -47.864,2.22025 -9.5255,-3.87044 -15.3644,-4.71361 -35.3217,-5.10081 -22.7618,-0.44152 -23.9095,-0.27625 -23.9095,3.44339 0,3.22224 1.4239,3.97125 8.1235,4.27211 19.1038,0.85801 35.2193,8.90387 46.748,23.33951 8.9508,11.20755 10.5732,15.08541 12.2948,29.3845 3.5689,29.64668 -8.2714,54.04171 -30.5993,63.04405 -8.2361,3.3205 -9.5089,1.84105 -5.5656,-6.46892 3.5565,-7.49475 4.1552,-19.9266 1.3187,-27.38696 -2.2521,-5.92328 -12.5833,-16.11065 -20.494,-20.20811 -7.1441,-3.70069 -27.7089,-4.0699 -34.2925,-0.61577 -6.2286,3.26796 -27.1354,20.17861 -41.0253,33.18345 -15.8669,14.85606 -41.1151,31.36973 -47.9619,31.36973 -2.4336,0 -1.3972,-2.09053 3.9943,-8.05835 z m 45.6074,-53.57148 c 2.7226,-5.97504 2.8806,-8.69932 0.5048,-8.69932 -1.3978,0 -6.0518,9.98966 -6.0518,12.98979 0,2.64379 3.687,-0.20805 5.547,-4.29047 z m -20.968,-124.05244 c -1.7951,-4.49579 -1.9214,-4.35923 -2.0376,2.20795 -0.068,3.85012 0.5357,7.66978 1.3415,8.48813 2.3088,2.34451 2.8124,-5.39561 0.6961,-10.69608 z m 16.3141,-11.49511 c 1.445,-2.33766 -2.2301,-4.65383 -4.8323,-3.04564 -2.1847,1.35032 -0.7504,4.86423 1.9855,4.86423 0.9476,0 2.2287,-0.81835 2.8468,-1.81859 z m 55.7609,-20.76293 c 0,-1.675 -0.8936,-2.49336 -1.9856,-1.81859 -1.0918,0.67496 -1.4796,2.0454 -0.8613,3.04564 1.6746,2.70982 2.8469,2.20443 2.8469,-1.22705 z m 30.6287,-13.86266 c -0.7036,-0.70387 -4.9937,-2.94269 -9.5333,-4.975 -8.8083,-3.94352 -8.8454,-3.08511 -0.1096,2.51543 5.1536,3.30391 12.3131,5.13013 9.6427,2.45957 z m -210.8057,-10.27274 c 12.8721,-10.17488 39.2925,-42.05607 46.253,-55.81304 6.8258,-13.491093 5.2662,-15.978394 -10.6308,-16.955782 l -10.7341,-0.659912 -3.9179,11.855736 c -4.1947,12.693638 -18.2616,40.946218 -28.1516,56.541328 -9.7021,15.29836 -7.6372,16.74518 7.1814,5.03167 z m 131.8566,-2.43008 c -3.6604,-6.25949 -10.2873,-11.13955 -10.2873,-7.57562 0,1.11217 0.7163,2.02216 1.5916,2.02216 0.8757,0 3.0815,3.12378 4.9022,6.94168 1.8205,3.8181 4.1951,6.39488 5.2769,5.72636 1.2277,-0.75877 0.6704,-3.43148 -1.4834,-7.11458 z m 38.0233,-4.78004 c -0.6492,-0.64918 -2.3342,-0.71852 -3.7443,-0.15433 -1.5586,0.62358 -1.0956,1.08639 1.1802,1.18016 2.0594,0.084 3.2133,-0.37684 2.5641,-1.02602 z m 27.0376,-0.99184 c 1.7794,-2.879 -2.7436,-5.57514 -9.4145,-5.61246 -6.5057,-0.0351 -6.9665,2.51154 -0.9768,5.40011 5.8003,2.79754 8.7561,2.85791 10.3913,0.21235 z m -77.3017,-5.64235 c 0,-1.07447 -0.9311,-1.95358 -2.069,-1.95358 -1.1378,0 -1.5255,0.87911 -0.8614,1.95358 0.664,1.07448 1.5949,1.95359 2.0688,1.95359 0.4739,0 0.8616,-0.87911 0.8616,-1.95359 z m -6.39,-3.13375 c -0.6491,-0.64917 -2.3341,-0.71852 -3.7442,-0.15432 -1.5585,0.62357 -1.0956,1.08638 1.1802,1.18015 2.0595,0.084 3.2132,-0.37684 2.564,-1.02602 z m 41.8068,-14.97757 c -3.2523,-3.25253 -5.0945,-0.0215 -2.0673,3.62645 1.8309,2.20618 2.8897,2.46953 3.4285,0.85313 0.4289,-1.28624 -0.1836,-3.30215 -1.3612,-4.47958 z m 28.1432,-28.64253 c -3.5979,-6.957111 -5.6967,-8.041554 -3.0921,-1.597443 0.9769,2.417563 2.4355,7.032913 3.2407,10.256333 1.2679,5.07406 1.5643,5.28837 2.2074,1.59745 0.4087,-2.3447 -0.6515,-6.96005 -2.356,-10.25634 z m -843.75482,19.26199 c -4.00485,-3.15016 -5.09769,-5.64392 -4.92285,-11.23313 l 0.22467,-7.184327 1.43745,7.425397 c 1.77952,9.19104 3.52447,10.99264 11.95693,12.3455 5.08851,0.81641 8.37816,-0.0938 13.88142,-3.84232 3.96696,-2.70161 6.7854,-3.79895 6.2634,-2.43846 -1.2585,3.27949 -13.40513,8.97614 -19.1395,8.97614 -2.5047,0 -6.87057,-1.82191 -9.70152,-4.0488 z m 6.71839,-10.42903 c -1.56384,-1.88444 -1.63964,-3.157 -0.23931,-4.02245 1.12663,-0.69644 2.04854,0.0429 2.04854,1.64376 0,1.60038 1.978,3.29062 4.39556,3.75635 4.20998,0.81094 4.22014,0.85783 0.23912,1.11277 -2.28589,0.14652 -5.1858,-0.97445 -6.44391,-2.49043 z m 27.88767,-10.596461 c 0.23208,-7.424618 -0.84649,-11.06884 -5.05804,-17.089594 -6.94188,-9.924232 -29.65078,-33.507165 -39.32631,-40.839566 l -7.56098,-5.730261 -3.72177,4.806799 c -11.32104,14.621239 -20.20987,25.011788 -20.84928,24.372185 -1.78948,-1.789288 2.39647,-13.306476 8.55105,-23.527257 3.69716,-6.139929 6.72229,-12.336905 6.72229,-13.77123 0,-1.434323 -2.57971,-6.982904 -5.7328,-12.33046 -10.6705,-18.0972576 -12.94056,-37.383665 -6.00142,-50.985717 4.24964,-8.330099 18.79606,-19.560698 25.33569,-19.560698 10.48139,0 23.52844,9.7279 23.50948,17.528771 0,1.641209 -1.8729,-0.09377 -4.15313,-3.853647 -5.25496,-8.667093 -6.92391,-9.701322 -15.71408,-9.737855 -14.89982,-0.06251 -24.52026,14.605805 -22.06715,33.645279 1.415,10.981899 10.13307,31.1020979 13.98828,32.283042 2.88233,0.882826 7.62955,-8.0015069 9.44423,-17.6745016 0.79492,-4.2373334 2.49083,-7.2585564 4.0746,-7.2585564 3.65947,0 3.56197,12.2089484 -0.19634,24.5978211 -1.59998,5.2744919 -2.91865,10.2043719 -2.93037,10.9549399 -0.0196,0.750765 7.98841,9.102353 17.77764,18.559083 27.94179,26.992728 34.55467,39.699841 29.16238,56.038281 -3.43421,10.405973 -5.58706,10.231143 -5.25397,-0.426858 z m -24.12487,-3.403349 -4.88396,-2.942686 4.88396,1.277842 c 2.6862,0.7029 5.71914,2.058297 6.73988,3.011843 2.98391,2.788158 -1.29678,1.932487 -6.73988,-1.346999 z M 380.44394,58.565272 c 1.63516,-9.16819 2.65747,-11.19582 4.93457,-9.788455 2.01962,1.248148 -0.9766,12.573483 -4.10097,15.502503 -1.65332,1.549781 -1.86744,0.08208 -0.8336,-5.714048 z M 1110.2335,12.152517 c 0.071,-4.714204 6.1068,-13.1867195 9.3962,-13.1867195 1.0982,0 2.6086,1.92662859 3.3559,4.2812886 1.0266,3.2347505 0.078,5.3833068 -3.8846,8.7911449 -6.5934,5.671462 -8.9501,5.701742 -8.8675,0.115263 z m 122.0344,-1.124486 c 4.1728,-4.3832651 34.9553,-15.9643296 50.0382,-18.8255546 18.2963,-3.4707444 26.1517,-6.7283534 26.1517,-10.8451494 0,-2.343524 -2.5485,-2.786207 -13.2013,-2.293121 -15.8151,0.731814 -18.088,-1.872123 -10.4143,-11.932906 5.4808,-7.185687 6.1896,-11.237625 3.0056,-17.18669 -1.963,-3.667861 -2.3039,-3.578778 -7.9652,2.082719 -6.2989,6.298954 -13.4145,9.039253 -18.4518,7.106373 -2.4658,-0.946319 -1.6879,-2.494537 3.9029,-7.767271 10.6209,-10.01703 8.3633,-14.551894 -4.0271,-8.089808 -10.9796,5.726162 -20.969,2.158129 -11.4395,-4.085936 6.2169,-4.07362 9.799,-10.310453 7.3362,-12.773341 -1.0974,-1.097527 -3.7662,-0.253184 -6.8384,2.163406 -5.3565,4.213495 -19.8269,5.532558 -22.0066,2.005938 -0.6654,-1.076615 1.2593,-2.895997 4.2768,-4.043143 7.5975,-2.888572 12.3953,-7.529304 15.59,-15.079474 3.1307,-7.398564 5.6459,-6.832664 7.518,1.691481 0.7684,3.498193 3.1643,6.808511 5.7958,8.007423 2.4672,1.124099 5.4237,4.102336 6.57,6.618366 1.1464,2.51603 4.6533,5.902963 7.7931,7.526787 3.1398,1.623623 6.2273,4.303164 6.8611,5.954727 0.6337,1.651376 2.8369,3.002478 4.896,3.002478 2.059,0 5.2524,2.302693 7.0964,5.116837 4.1088,6.270821 2.7532,15.235642 -3.2738,21.651225 -3.6572,3.892719 -3.7739,4.489345 -0.8782,4.489345 1.8368,0 5.439,-1.375521 8.005,-3.056779 10.1259,-6.634776 24.5012,-1.916861 24.5012,8.041164 0,5.392488 -11.3039,15.7086044 -18.9026,17.2507674 -3.0345,0.6159663 -15.6271,2.40818799 -27.9836,3.9829754 -12.3563,1.5745917 -25.5431,4.1265632 -29.3038,5.67068 -10.9842,4.5106382 -16.8911,5.9686022 -14.6518,3.6164812 z M 423.97086,0.69472319 C 419.36527,-2.7414426 418.5985,-4.7028456 418.5985,-13.04701 c 0,-12.018669 2.04852,-16.046967 9.79137,-19.254173 11.60197,-4.805826 21.46603,5.426872 21.46603,22.268168 0,6.8557274 -0.95062,9.44325389 -4.34185,11.8184269 -5.95962,4.1744267 -15.1069,3.7112302 -21.54319,-1.09068871 z m 23.37448,-6.86647179 c 0.7662,-2.329457 -9.18323,-13.2003934 -14.86407,-16.2407624 -1.84165,-0.985585 -4.54033,-1.055524 -5.99712,-0.156287 -3.8642,2.388261 0.94944,13.0657914 7.52425,16.6896984 5.74726,3.167547 12.24567,3.024544 13.33694,-0.293625 z M 510.8643,1.669759 c -3.59148,-1.59588651 -8.26153,-11.4366946 -8.26153,-17.40901 0,-7.20913 9.77713,-16.552359 17.32129,-16.552359 11.00906,0 16.61331,15.556226 7.15639,19.865059 -5.51263,2.5117284 -10.84593,-0.437604 -10.74317,-5.940665 0.0528,-2.788357 0.30437,-2.758857 2.05068,0.239119 1.09518,1.880328 3.70576,3.418779 5.80138,3.418779 2.89502,0 3.81007,-1.350125 3.81007,-5.62145 0,-7.127471 -4.31996,-10.817407 -10.76914,-9.198859 -12.50532,3.138634 -16.70846,16.8243 -7.87883,25.6539314 7.45392,7.4539141 19.67888,6.7187794 29.50368,-1.774053 7.17259,-6.2002994 7.57484,-7.1372394 7.15989,-16.6769994 -0.51398,-11.809245 -5.8211,-23.088481 -19.33095,-41.083768 -5.18618,-6.908085 -12.50627,-17.008752 -16.26693,-22.446176 -3.76066,-5.437424 -8.36311,-10.177049 -10.22762,-10.532459 -1.99833,-0.38089 -7.81337,3.5371 -14.16351,9.542826 -5.92543,5.603984 -10.77346,9.289684 -10.77346,8.190591 0,-4.931044 6.73871,-17.331197 12.91263,-23.760506 5.20241,-5.41775 6.51229,-8.16851 5.67889,-11.92598 -4.71362,-21.25205 -5.32138,-34.1898 -2.08819,-44.44685 3.44711,-10.93518 11.93877,-20.94412 20.61485,-24.2982 2.68618,-1.03845 9.52179,-1.93552 15.19031,-1.9935 11.7229,-0.11995 16.84325,3.18923 21.3242,13.78107 2.42381,5.72948 2.3906,7.10428 -0.2696,11.16439 -4.83728,7.38253 -9.18284,8.80962 -16.31207,5.35683 -7.46779,-3.61671 -8.54929,-10.94676 -2.12277,-14.38616 3.25254,-1.74069 4.75211,-1.59621 7.02511,0.6769 1.98777,1.98778 2.22162,3.303 0.7488,4.21317 -1.17742,0.72778 -2.14093,0.39226 -2.14093,-0.74563 0,-1.13789 -1.31867,-2.06889 -2.93038,-2.06889 -1.81743,0 -2.93039,1.84092 -2.93039,4.84676 0,6.51265 8.26524,8.84021 13.75385,3.87316 4.60441,-4.16701 4.77593,-7.08147 0.86252,-14.64938 -3.77864,-7.30691 -10.09987,-8.86895 -19.68456,-4.86417 -15.70059,6.56011 -22.28204,17.02263 -22.28204,35.42169 0,11.47284 2.82958,22.25805 5.83948,22.25805 3.48285,0 20.56014,-13.15616 23.29301,-17.9447 1.79417,-3.14398 4.33696,-5.09807 6.03209,-4.63572 13.3096,3.6302 15.54451,3.41326 17.89096,-1.73681 4.15841,-9.12651 17.27364,-8.28115 17.27364,1.11337 0,4.17666 -5.71718,4.98368 -9.37723,1.32367 -4.04745,-4.04748 -6.90633,1.34943 -6.51854,12.3056 0.39365,11.12254 -0.96566,17.38894 -3.77179,17.38894 -1.002,0 -1.82524,-1.978 -1.82935,-4.39556 -0.0196,-6.90492 -9.30943,-20.8622 -13.97049,-20.97117 -0.70368,-0.0157 -3.54615,3.83763 -6.31634,8.56461 -2.77018,4.72697 -7.68874,11.0977 -10.93032,14.15716 -3.2414,3.05946 -5.89359,6.93234 -5.89359,8.60643 0,1.67407 6.18213,11.786739 13.73802,22.472616 7.5559,10.685832 16.44277,25.029661 19.74843,31.875041 5.16978,10.705272 5.90336,14.127372 5.245,24.467126 -0.80098,12.578763 -3.9234,18.6679014 -13.13535,25.6166184 -4.85798,3.6643456 -23.70717,6.0422529 -29.0561,3.6655176 z m -52.29794,-32.091981 c -3.24178,-3.383615 -9.29107,-6.850256 -14.04063,-8.046243 -4.58976,-1.155743 -8.34495,-2.883105 -8.34495,-3.8388 0,-0.9555 3.46293,-3.123006 7.69518,-4.816376 5.75254,-2.301717 8.00366,-4.483094 8.91677,-8.640328 1.63203,-7.430285 5.64821,-10.458928 11.81647,-8.910914 3.805,0.955114 4.88573,2.321649 4.42097,5.590588 -0.47433,3.335173 -1.91901,4.326423 -6.30502,4.326423 -7.17259,0 -8.60086,3.910302 -3.44084,9.419224 6.20107,6.620319 10.68319,20.86139 6.5658,20.86139 -0.87344,0 -4.15117,-2.675244 -7.28375,-5.944964 z m -57.15945,-0.306518 c -1.28936,-1.289368 -2.3443,-3.682708 -2.3443,-5.318643 0,-2.077641 0.91663,-1.665434 3.04115,1.367511 3.87065,5.526115 9.56379,5.553465 13.40865,0.06447 1.64784,-2.352706 3.44672,-3.827079 3.99724,-3.276557 0.55071,0.550716 -0.78202,2.915143 -2.96146,5.254565 -4.352,4.671225 -11.48045,5.569875 -15.14128,1.909046 z m 6.46658,-7.391595 c -0.67496,-1.092056 -0.2442,-1.985627 0.95706,-1.985627 1.20126,0 1.59354,-0.955695 0.87169,-2.123746 -0.72204,-1.16805 -2.9716,-1.689853 -4.99943,-1.159649 -3.87963,1.014497 -5.08206,-1.484337 -1.71563,-3.564908 3.40725,-2.105577 9.75055,1.089321 9.75055,4.911125 0,4.29086 -3.09449,6.786178 -4.86424,3.922805 z m 731.59891,-33.412421 c 0,-1.335077 5.5754,-7.777231 12.3901,-14.315716 11.2054,-10.751609 16.7112,-14.207678 40.8452,-25.638978 4.5592,-2.15958 7.3259,-4.82939 7.3259,-7.06957 0,-4.94859 -5.2221,-4.47266 -14.6518,1.33539 -8.9687,5.52389 -12.6984,6.08273 -12.6984,1.90262 0,-1.7788 -1.8158,-2.93038 -4.6206,-2.93038 -6.7191,0 -14.9152,-7.15849 -14.9152,-13.02693 0,-15.44031 27.981,-27.72364 32.2822,-14.17155 1.6905,5.32619 0.2255,6.51567 -4.7472,3.85441 -5.2195,-2.79344 -14.931,1.8571 -16.912,8.09866 -1.0868,3.42413 2e-4,5.48175 5.1811,9.80694 3.6061,3.01049 7.2154,5.24595 8.0206,4.96766 3.6489,-1.26118 23.3794,-22.17136 30.0249,-31.82042 12.4149,-18.02569 14.6985,-12.84155 3.5775,8.12127 l -7.0414,13.27273 5.0877,4.05679 c 2.7981,2.23126 5.0877,5.62988 5.0877,7.5525 0,6.02074 -10.147,13.93606 -26.3734,20.572869 -24.6394,10.07781 -30.9911,13.417629 -39.7078,20.878671 -4.4855,3.839388 -8.1551,5.888123 -8.1551,4.553034 z m 72.2827,-11.552048 c -3.9853,-3.985171 -5.047,-10.810617 -2.3437,-15.064537 2.0855,-3.281609 14.8413,-8.378519 20.9685,-8.378519 6.3957,0 12.6327,3.26024 12.6327,6.603519 0,5.16724 -7.0134,9.025177 -16.4068,9.025177 -8.48,0 -9.209,0.369958 -8.6375,4.383019 0.4371,3.067757 2.383,4.75708 6.4852,5.629616 5.6723,1.206528 5.6252,1.254 -1.4652,1.477695 -4.9504,0.156283 -8.5931,-1.035853 -11.2332,-3.67597 z m 17.6855,-14.651917 c -0.1523,-2.899679 -4.5237,-2.366969 -5.5379,0.67497 -0.5477,1.6432 0.3455,2.37555 2.3825,1.95359 1.7922,-0.37122 3.2121,-1.55409 3.1554,-2.62856 z m -204.6287,-20.461169 c 12.1646,-2.21922 18.7941,-7.35272 47.8326,-37.0395 25.1491,-25.71043 28.8606,-31.65116 22.623,-36.21218 -3.455,-2.52626 -3.362,-2.74445 1.7122,-4.01802 2.9511,-0.74068 6.5464,-0.89365 7.9893,-0.33995 1.4428,0.55371 3.4228,0.42874 4.3999,-0.27772 2.851,-2.06138 20.9522,-22.28707 25.1948,-28.15174 2.1352,-2.9518 5.4487,-5.36691 7.3633,-5.36691 3.9032,0 3.753,1.34009 -2.6548,23.6537 -5.3262,18.54797 -4.9734,21.87278 2.6423,24.89766 6.3447,2.52002 6.3458,2.52313 1.6703,4.37725 -2.5733,1.02049 -6.2561,1.35483 -8.1838,0.74297 -4.245,-1.34731 -7.0109,3.1804 -8.808,14.41846 -0.705,4.41 -2.563,9.57501 -4.1287,11.47783 -2.1185,2.57457 -2.6149,2.69714 -1.9399,0.47909 2.6477,-8.7028 5.4718,-25.91754 4.6172,-28.14471 -0.5404,-1.40788 -3.4431,-3.17735 -6.4504,-3.93218 -5.0483,-1.267 -7.2735,0.48311 -28.9733,22.78721 -34.9283,35.90075 -42.6023,41.04521 -62.4594,41.8703 l -11.8389,0.49193 9.3923,-1.71349 z m 107.1109,-75.09725 c 1.8686,-6.98755 0.3497,-9.94699 -3.4758,-6.77208 -4.1709,3.46157 -6.928,9.3077 -5.4884,11.63721 2.2839,3.69535 7.4205,0.90763 8.9642,-4.86513 z m -125.3158,66.743 c -4.9979,-8.19721 -4.89,-11.91786 0.5099,-17.5691 2.4175,-2.53014 3.1867,-3.04786 1.7094,-1.15047 -3.9094,5.02064 -3.293,12.85992 1.5236,19.37459 2.3153,3.13178 3.2916,5.69414 2.169,5.69414 -1.1223,0 -3.7827,-2.85712 -5.9119,-6.34916 z m 9.8099,-6.32429 c -1.3261,-1.59801 -1.901,-4.23536 -1.2772,-5.86077 1.2356,-3.21998 9.0711,-4.13816 9.0711,-1.06296 0,1.04073 -1.3187,1.38624 -2.9304,0.76777 -3.543,-1.35955 -3.9539,3.34943 -0.5861,6.71716 1.5273,1.52736 1.6107,2.34432 0.2391,2.34432 -1.1577,0 -3.1902,-1.30748 -4.5165,-2.90552 z m -436.17639,-8.04255 c -0.55756,-4.94698 -2.86142,-11.49357 -5.11957,-14.54797 -4.46669,-6.04137 -3.47172,-8.11209 2.76276,-5.75053 8.48482,3.21394 12.15952,14.89825 7.51213,23.88552 -1.53805,2.9741 -3.09897,5.40746 -3.46878,5.40746 -0.37002,0 -1.12879,-4.04753 -1.68654,-8.99448 z m 451.38299,1.75676 c 0.7646,-4.00018 -0.291,-6.23017 -4.6779,-9.88236 -5.1186,-4.26142 -5.194,-4.48301 -0.7812,-2.29687 2.6862,1.33076 5.5298,3.38686 6.3192,4.56908 1.9739,2.95636 1.861,10.48396 -0.1758,11.74307 -0.9194,0.56813 -1.227,-1.29168 -0.684,-4.13292 z m 108.1831,-9.04546 c 4.6512,-4.65784 9.7669,-11.03142 11.3679,-14.16349 8.6592,-16.94021 20.6642,-34.66867 26.4799,-39.10446 3.8747,-2.95544 10.066,-5.39751 14.9801,-5.90875 7.3895,-0.76878 7.9159,-0.57551 4.4687,1.64127 -8.3119,5.34526 -17.9333,17.05904 -26.2327,31.93744 -4.7577,8.52925 -10.0324,17.17921 -11.7215,19.22212 -4.4514,5.38384 -19.8239,14.8447 -24.1206,14.8447 -2.868,0 -1.8148,-1.86664 4.7782,-8.46883 z m -339.78021,2.30484 c -2.97083,-2.97077 -3.10524,-9.41508 -0.27898,-13.3719 1.65137,-2.31172 1.86841,-1.92074 1.02877,1.85195 -2.41699,10.85772 8.33302,13.48403 13.20116,3.22518 2.46681,-5.19844 3.14646,-12.95728 3.12321,-35.65298 -0.0196,-15.95471 -0.79824,-30.22154 -1.73732,-31.70405 -1.09304,-1.72601 -3.92379,-2.37014 -7.87042,-1.79093 -8.85113,1.29908 -9.10919,-1.3317 -0.63102,-6.43071 4.03612,-2.42732 7.64948,-4.6451 8.02984,-4.92838 0.38037,-0.28332 1.49215,-7.67194 2.47089,-16.41916 2.58577,-23.11248 7.82237,-31.22693 20.15204,-31.22693 10.23153,0 17.31641,15.33136 9.9213,21.46881 -4.00934,3.32753 -8.81595,1.03841 -8.81595,-4.19861 0,-4.23933 0.0683,-4.25231 2.89326,-0.54971 2.5043,3.28233 3.1568,3.3982 4.85409,0.86179 2.65765,-3.97186 2.52325,-5.07889 -1.04948,-8.6516 -5.09808,-5.09826 -10.51655,-3.75906 -13.47917,3.33156 -2.86337,6.85319 -4.47352,28.68388 -2.36697,32.09243 0.7494,1.21262 5.0977,1.65644 10.58259,1.08009 10.84789,-1.13991 10.02777,0.7635 -3.39202,7.87246 l -8.78704,4.65485 -0.0761,34.46912 c -0.0704,31.69318 -0.40049,34.90515 -4.10371,39.88295 -3.16344,4.25208 -5.87425,5.53737 -12.63248,5.98968 -5.00139,0.33475 -9.62319,-0.44245 -11.0366,-1.85591 z m -205.33246,-4.67793 c -4.99297,-6.34751 -5.29402,-12.54318 -1.02074,-21.00091 7.17552,-14.20223 16.08154,-18.98873 20.38139,-10.95416 2.82332,5.27532 1.13504,11.72872 -4.96446,18.97764 -4.36354,5.18571 -4.54971,6.05005 -1.79554,8.33578 2.41757,2.0064 3.87201,2.051 6.82134,0.20916 4.27289,-2.66842 4.79196,-0.91308 1.14754,3.87931 -1.36224,1.79125 -5.60719,3.84409 -9.43329,4.56185 -6.0405,1.13322 -7.50667,0.60544 -11.13624,-4.00867 z m 12.51273,-16.78255 c 1.55389,-4.89555 -2.86982,-10.90729 -5.25691,-7.14418 -0.88439,1.39393 -1.62128,4.92442 -1.63769,7.8455 -0.0351,6.16523 4.87381,5.66595 6.8946,-0.70132 z m 23.57239,9.88045 c -0.48879,-1.52276 -1.39838,-5.86158 -2.02118,-9.64184 -0.623,-3.78023 -2.88936,-10.15062 -5.03616,-14.15641 -5.12876,-9.56897 -5.0256,-9.89633 2.66333,-8.45388 4.79821,0.90015 7.27594,0.3777 9.19925,-1.93968 3.38341,-4.07686 10.74395,-6.8715 14.40165,-5.46796 1.56835,0.60183 4.30513,4.90075 6.08192,9.55315 2.67211,6.99693 2.83133,9.66829 0.92111,15.45643 -2.51661,7.62514 -5.91351,9.36437 -5.91351,3.02763 0,-2.18344 -1.27902,-7.03094 -2.84227,-10.77217 -4.95489,-11.85871 -14.41103,-11.40952 -10.98913,0.52199 0.98324,3.42851 1.04185,9.3165 0.13284,13.34679 -1.89908,8.4204 -5.2444,12.74323 -6.59804,8.52595 z m 174.62986,-1.79187 c 0,-3.8079 2.07198,-5.09105 4.4237,-2.73938 1.56503,1.56504 -0.48332,6.64656 -2.67914,6.64656 -0.95961,0 -1.74456,-1.75823 -1.74456,-3.90718 z m -241.59651,-12.8498 c -1.41577,-3.68904 3.93863,-9.6574 6.97841,-7.77872 3.20271,1.97939 2.58069,8.32027 -0.94905,9.67478 -4.35162,1.66986 -4.70346,1.55917 -6.02936,-1.89606 z m 106.08549,-6.82787 c -9.13126,-7.18268 -5.46086,-25.23519 5.70018,-28.03647 7.43301,-1.86558 6.15341,-8.06593 -4.63137,-22.44 -4.41648,-5.8863 -4.43034,-6.03576 -0.55639,-6.03576 11.07353,0 26.20094,23.85843 26.29803,41.47631 0.0918,16.72791 -14.3573,24.83154 -26.81045,15.03592 z m 18.29574,-10.22955 c 0,-10.68791 -4.1289,-16.92229 -9.16526,-13.8391 -6.73596,4.12374 -5.63668,16.2711 1.79672,19.85357 6.90808,3.32921 7.36854,2.9534 7.36854,-6.01447 z m 18.07069,0.54253 c -2.57131,-1.03351 -4.39557,-3.4431 -4.39557,-5.80567 0,-3.48878 0.55482,-3.74187 4.0744,-1.85826 5.09124,2.72475 7.30564,0.80051 4.14493,-3.60202 -7.90637,-11.01331 -7.71882,-20.41573 0.48156,-24.15213 6.24249,-2.84422 14.17465,-0.64406 15.76702,4.37332 1.734,5.46319 -0.14066,6.87316 -4.00174,3.01118 -4.50067,-4.50061 -6.79106,-3.92016 -6.79106,1.72102 0,2.68618 0.74061,4.88397 1.6459,4.88397 0.9053,0 3.32286,3.14199 5.37237,6.9822 l 3.72647,6.9822 -5.48138,4.73932 c -5.90198,5.10315 -7.76005,5.45128 -14.5429,2.72487 z m 314.03928,-0.80062 c 0,-1.54829 0.8791,-3.35841 1.9535,-4.02248 1.0745,-0.66406 1.9537,-3.44733 1.9537,-6.18505 0,-3.70729 -0.778,-4.67919 -3.048,-3.80811 -1.6764,0.64327 0.2194,-2.81756 4.2125,-7.69076 8.8759,-10.8318 12.2622,-9.3585 9.2046,4.00443 -2.6589,11.61934 -0.094,12.90994 4.8338,2.43267 3.0322,-6.4461 5.0333,-8.35169 9,-8.57078 12.3762,-0.68358 0.4886,14.649 -17.541,22.62437 -10.8471,4.79822 -10.5691,4.76624 -10.5691,1.21571 z m -20.45797,-6.46447 c 4.75427,-11.21179 6.62107,-17.86793 6.69707,-23.87718 0.084,-6.73014 0.1153,-6.7531 3.8566,-2.93037 2.438,2.49135 3.9594,7.15782 4.3046,13.20502 0.4957,8.68507 0.084,9.62562 -5.7716,13.18672 -7.8751,4.7891 -11.00155,4.93218 -9.08667,0.41581 z m -34.24251,-6.91524 c -2.68617,-1.35415 -5.17328,-4.48202 -5.52689,-6.95081 -1.68204,-11.74432 20.82933,-28.42923 31.68427,-23.48347 12.7139,5.79291 4.35099,18.80847 -12.71244,19.78435 -4.53249,0.2592 -8.57192,1.46814 -8.97653,2.68651 -1.23438,3.71655 4.87525,8.27468 9.47764,7.07108 2.91475,-0.76221 3.80872,-0.40123 2.84955,1.15071 -1.83692,2.97219 -10.65644,2.83652 -16.7956,-0.25837 z m 18.24045,-16.66429 c 2.72062,-3.00609 2.81713,-4.10298 0.62458,-7.10125 -2.47112,-3.37955 -2.79129,-3.33292 -6.82178,0.99325 -4.49793,4.82785 -5.00643,6.28098 -2.9266,8.36088 2.28134,2.28131 5.80881,1.4103 9.1238,-2.25288 z m -214.52875,13.01147 c -4.94102,-3.88659 -5.29307,-5.06632 -4.47138,-14.97647 1.04517,-12.60346 5.8928,-17.92277 16.33355,-17.92277 5.47122,0 7.36797,1.22493 11.14992,7.20082 4.08123,6.44841 4.31019,7.9202 2.19075,14.08489 -2.66685,7.75766 -10.98249,15.83244 -16.30446,15.83244 -1.9442,0 -5.94847,-1.89851 -8.89838,-4.21891 z m 14.2139,-2.03257 c 4.92617,-4.92627 1.41225,-25.00591 -4.37623,-25.00591 -6.80454,0 -9.52276,17.36722 -3.72138,23.7776 3.80031,4.19939 4.95175,4.37405 8.09761,1.22831 z m 148.44103,-20.45141 c -0.31021,-11.66349 -1.41476,-21.12 -2.50802,-21.47312 -1.07447,-0.34703 -3.89192,2.76341 -6.26083,6.91209 -14.76364,25.85528 -37.04263,36.86031 -50.10798,24.75171 -2.84306,-2.63487 -5.16587,-5.49199 -5.16197,-6.34917 0.0196,-3.18989 7.8337,-14.25677 10.07251,-14.25677 1.27745,0 0.33895,2.11175 -2.08585,4.69277 -5.63278,5.99586 -4.72788,12.83058 2.21303,16.71384 4.84918,2.71297 5.89256,2.6638 11.7215,-0.55231 3.5192,-1.94174 9.52517,-7.64809 13.34675,-12.68077 10.91388,-14.3732 25.20381,-51.41116 25.26285,-65.47879 0.019,-3.50646 0.90426,-5.24142 2.42751,-4.73372 3.24331,1.08111 8.93123,25.89671 10.75921,46.94104 0.81849,9.42498 2.36757,17.26575 3.44203,17.42398 2.83524,0.41752 17.97397,-25.35752 20.2921,-34.5492 1.08543,-4.30398 2.49807,-11.12207 3.13897,-15.15135 2.00009,-12.57052 5.5629,-8.76165 4.07835,4.35999 -2.49103,22.01819 -13.88734,48.3038 -27.87521,64.29393 -4.80066,5.48788 -9.50962,9.97798 -10.46454,9.97798 -0.9547,0 -1.98544,-9.37897 -2.29041,-20.84213 z m -53.30129,3.25983 c -1.42456,-2.30498 0.42315,-5.86077 3.04566,-5.86077 1.01095,0 1.83827,1.25423 1.83827,2.78716 0,1.53291 1.53846,3.18917 3.41877,3.68055 2.15095,0.56211 1.46912,0.97747 -1.83827,1.12004 -2.89149,0.12464 -5.80041,-0.6525 -6.46443,-1.72698 z m 11.24306,-11.64923 c -2.00299,-3.20763 -1.92013,-3.65275 0.50704,-2.72138 1.59583,0.61245 2.90178,2.33815 2.90178,3.83489 0,3.624 -0.5653,3.43932 -3.40882,-1.11351 z"
       id="path6364"
       inkscape:connector-curvature="0" />
  </g>
</svg>
